<svg width="90" height="90" viewBox="0 0 90 90" fill="none" xmlns="http://www.w3.org/2000/svg">
<rect width="90" height="90" fill="#4CAD3B"/>
<path fill-rule="evenodd" clip-rule="evenodd" d="M56.5 64.9195C56.5 64.9195 43.9165 64.9195 42.3375 64.9195H20V64.4999C20 63.1215 21.3112 62 22.9229 62H55.9928L56.5 64.9195Z" fill="white"/>
<path fill-rule="evenodd" clip-rule="evenodd" d="M57 71H19.3556C18.0568 71 17 69.9806 17 68.7275C17 67.4745 18.0568 66.455 19.3556 66.455H57C58.2988 66.455 59.3554 67.4743 59.3554 68.7274C59.3554 69.9805 58.2988 71 57 71Z" fill="white"/>
<path fill-rule="evenodd" clip-rule="evenodd" d="M23 61V57.4407C23 57.1087 23.2581 56.8395 23.5764 56.8395H46.309V54.6744C46.309 54.3424 46.5671 54.0733 46.8854 54.0733H55.0044C55.3226 54.0733 55.5808 54.3424 55.5808 54.6744L56 61L23.1977 60.9948C23.1314 60.9948 23.0655 60.9966 23 61Z" fill="white"/>
<path fill-rule="evenodd" clip-rule="evenodd" d="M47.5001 53L58.9115 30.899L63.4362 34.0856L54.7319 53L47.5001 53ZM65.2861 32.5635C65.2177 32.5369 65.1524 32.5018 65.0915 32.4591L58.878 28.0829C58.6172 27.8993 58.4505 27.5866 58.4084 27.2027C58.3665 26.8186 58.4544 26.4101 58.656 26.0525L64.0826 17.757C64.4457 17.1133 65.0932 16.7948 65.6222 17C65.6906 17.0265 65.7561 17.0617 65.8169 17.1045L72.0305 21.4806C72.2912 21.664 72.458 21.9767 72.5 22.3609C72.542 22.7449 72.4541 23.1534 72.2524 23.5109L72.1377 23.7145L67.5918 22.6398C65.8015 22.2166 64.2281 21.877 63.4969 24.1645C62.8005 26.3434 63.6714 27.8602 65.2993 28.4916C65.5508 28.5892 65.3723 28.534 65.6382 28.5969L68.2829 29.2219L66.826 31.8064C66.4626 32.4503 65.8151 32.7686 65.2861 32.5635Z" fill="white"/>
<path fill-rule="evenodd" clip-rule="evenodd" d="M66.0739 27.7813C64.9823 27.3797 64.3933 26.2385 64.7036 25.1266C65.0327 23.948 66.2748 23.2357 67.4723 23.5391L73.343 25.027L72.623 29.4538L66.3004 27.8515C66.2238 27.832 66.1476 27.8084 66.0739 27.7813ZM74.4979 25.3197L75.5775 25.5933C75.6539 25.6127 75.73 25.6361 75.8038 25.6633C76.8953 26.0648 77.4844 27.2062 77.1741 28.3182C76.8448 29.497 75.6029 30.2091 74.4055 29.9055L73.7778 29.7464L74.4979 25.3197Z" fill="white"/>
<path fill-rule="evenodd" clip-rule="evenodd" d="M40.2846 56H39.3533V47H40.2846C41.2304 47 42 48.1549 42 49.5741V53.4259C42.0001 54.8453 41.2304 56 40.2846 56ZM38.1679 56H36.5927V47H38.1679V56ZM35.4072 56H33.8321V47H35.4072V56ZM32.6467 56H31.7154C30.7696 56 30 54.8453 30 53.4259V49.5741C30 48.1545 30.7696 47 31.7154 47H32.6467V56Z" fill="white"/>
</svg>
