<svg width="83" height="83" viewBox="0 0 83 83" fill="none" xmlns="http://www.w3.org/2000/svg">
<g clip-path="url(#clip0_322_127)">
<path fill-rule="evenodd" clip-rule="evenodd" d="M39.0521 40.4343C38.6982 40.4343 38.3664 40.2122 38.245 39.8584C38.0924 39.4127 38.3294 38.9276 38.7752 38.7745C40.6281 38.1376 42.5885 37.8147 44.6009 37.8147H46.9735C47.4447 37.8147 47.8263 38.1967 47.8263 38.6679C47.8265 39.1388 47.4443 39.5207 46.9734 39.5207H44.6011C42.7786 39.5207 41.0039 39.8126 39.329 40.3879C39.2374 40.4193 39.1438 40.4344 39.0521 40.4343ZM77.3673 68.9614H40.307C39.8358 68.9614 39.4534 68.5795 39.4534 68.1084C39.454 67.6373 39.8355 67.2554 40.3064 67.2554L76.5143 67.2551V50.5996C76.5143 44.4907 70.3906 39.5207 62.8646 39.5207H60.4927C60.0215 39.5207 59.6393 39.1389 59.6393 38.6679C59.6397 38.1966 60.0214 37.8147 60.4923 37.8147H62.8651C71.3324 37.8147 78.2199 43.55 78.2199 50.5997L78.2202 68.1081C78.2202 68.5793 77.8379 68.9615 77.3673 68.9614Z" fill="white" stroke="white" stroke-width="0.3"/>
<path fill-rule="evenodd" clip-rule="evenodd" d="M46.9733 39.5207C46.5022 39.5207 46.1201 39.139 46.1201 38.6679L46.1204 34.1489C46.1204 33.6778 46.5022 33.296 46.9732 33.296C47.4445 33.2959 47.8261 33.6779 47.8261 34.149L47.8263 38.6677C47.8263 39.1389 47.4441 39.5207 46.9733 39.5207ZM60.4924 39.5207C60.0212 39.5207 59.639 39.139 59.639 38.6679L59.6394 34.3215C59.6394 33.8504 60.0211 33.4686 60.492 33.4686C60.9629 33.4685 61.345 33.8504 61.345 34.3215L61.3454 38.6677C61.3454 39.1389 60.9629 39.5207 60.4924 39.5207Z" fill="white" stroke="white" stroke-width="0.3"/>
<path fill-rule="evenodd" clip-rule="evenodd" d="M53.8154 38.1836C53.8068 38.1836 53.7987 38.1836 53.7899 38.1836C48.1098 38.1689 43.4696 33.1479 41.971 25.3913C41.8823 24.9286 42.1843 24.4814 42.6478 24.3922C43.1118 24.3026 43.5569 24.6056 43.6458 25.0679C44.9837 31.9864 48.9667 36.4653 53.7943 36.4776C53.8022 36.4776 53.8076 36.4776 53.8151 36.4776C58.6256 36.4776 62.6115 32.0433 63.9754 25.1727C64.0674 24.7107 64.5159 24.4105 64.978 24.502C65.4401 24.5934 65.7406 25.0427 65.6488 25.5047C64.1193 33.2099 59.4764 38.1836 53.8154 38.1836Z" fill="white" stroke="white" stroke-width="0.3"/>
<path fill-rule="evenodd" clip-rule="evenodd" d="M60.7354 13.0134C60.796 13.0134 60.8566 13.0202 60.9188 13.0333C63.1671 13.5149 64.6447 15.8006 65.3096 19.8265C65.4628 20.7486 65.5526 21.6535 65.6058 22.4556C66.6163 19.1 65.3689 14.0176 64.5989 11.8179C62.0828 8.33867 59.1447 6.389 55.866 6.02186C50.199 5.38752 45.2896 9.69153 45.2407 9.73505C41.9576 12.5626 40.6648 15.9413 41.3845 19.7859C41.5331 20.5814 41.7562 21.3186 42.0035 21.9712C42.1655 20.3208 42.439 18.8445 42.4596 18.737C42.5294 18.3596 42.8431 18.0763 43.2266 18.0441C56.4024 16.9372 60.0881 13.3136 60.1236 13.2771C60.2869 13.1051 60.5057 13.0137 60.7354 13.0134ZM42.8393 26.2534C42.5753 26.2538 42.3189 26.1324 42.1546 25.9113C42.0822 25.8132 40.3567 23.4773 39.72 20.1657C39.1234 17.0648 39.4001 12.5173 44.1109 8.45685C44.4099 8.19038 49.6655 3.61922 56.0423 4.32492C59.8591 4.74778 63.2275 6.96747 66.056 10.9223C66.1025 10.986 66.1374 11.056 66.1641 11.1297C66.3231 11.5704 69.9966 21.9729 65.3704 25.9833C65.1129 26.2061 64.7484 26.2547 64.4419 26.107C64.1359 25.9592 63.9459 25.6434 63.959 25.3032C64.06 22.8721 63.6985 15.9869 60.9426 14.8218C59.6571 15.8423 55.1834 18.6566 44.0249 19.6863C43.7782 21.2014 43.4266 23.9454 43.6755 25.2392C43.7515 25.6293 43.5467 26.0201 43.1823 26.1809C43.0718 26.2301 42.9543 26.2536 42.8387 26.2536L42.8393 26.2534ZM53.7343 49.8708C53.4451 49.8711 53.1771 49.7257 53.0185 49.4844L46.26 39.1344C46.0021 38.7399 46.1132 38.2116 46.5071 37.9539C46.9025 37.6963 47.4312 37.8074 47.6873 38.2017L53.7343 47.4577L59.7792 38.2015C60.0365 37.807 60.5652 37.6961 60.9591 37.9539C61.3533 38.2115 61.464 38.7399 61.2063 39.1344L54.4481 49.4843C54.2908 49.7255 54.0211 49.871 53.7338 49.871L53.7343 49.8708Z" fill="white" stroke="white" stroke-width="0.3"/>
<path fill-rule="evenodd" clip-rule="evenodd" d="M48.8524 68.9615C48.4999 68.9615 48.1696 68.7405 48.0466 68.3879L42.5529 52.5405C42.4344 52.2 42.5437 51.8225 42.8236 51.5967L44.6748 50.1078L41.8226 44.6824C41.67 44.3942 41.6966 44.0445 41.8892 43.7815L46.0049 38.1637C46.2015 37.8955 46.5347 37.766 46.8604 37.8317C47.1864 37.8971 47.4454 38.1462 47.5225 38.4695L54.5628 67.91C54.6721 68.3681 54.3893 68.8287 53.9316 68.938C53.4732 69.0475 53.0119 68.7651 52.9025 68.307L46.2921 40.6583L43.5806 44.3598L46.5115 49.9353C46.702 50.2965 46.6088 50.7416 46.2918 50.9972L44.3609 52.5492L49.6594 67.829C49.8134 68.2742 49.5779 68.7602 49.1322 68.9145C49.0404 68.9462 48.9455 68.9618 48.8524 68.9615Z" fill="white" stroke="white" stroke-width="0.3"/>
<path fill-rule="evenodd" clip-rule="evenodd" d="M58.6131 68.9616C58.5199 68.9616 58.4262 68.9465 58.3329 68.9146C57.8874 68.76 57.6517 68.2743 57.8057 67.8292L63.1047 52.5492L61.1748 50.9972C60.8563 50.7416 60.7644 50.2966 60.954 49.9356L63.8864 44.3599L61.1748 40.6584L54.5628 68.3069C54.4535 68.765 53.9924 69.0477 53.5349 68.9381C53.0761 68.8286 52.7928 68.3684 52.9025 67.9101L59.9427 38.4692C60.0212 38.1461 60.2787 37.8974 60.6046 37.8317C60.9309 37.7659 61.265 37.8957 61.4606 38.1638L65.5777 43.7815C65.7702 44.0443 65.7951 44.3943 65.644 44.6826L62.7908 50.1079L64.6421 51.5966C64.9232 51.8225 65.0309 52.2003 64.9125 52.5407L59.4189 68.3878C59.2955 68.7403 58.9652 68.9617 58.6131 68.9616Z" fill="white" stroke="white" stroke-width="0.3"/>
<path fill-rule="evenodd" clip-rule="evenodd" d="M34.34 63.151C31.5205 63.151 29.225 65.4458 29.225 68.2662C29.2255 71.0868 31.5204 73.3814 34.34 73.3814C37.1616 73.3812 39.455 71.0868 39.455 68.2662C39.4553 65.4457 37.161 63.1512 34.34 63.151ZM34.34 75.0872C30.5789 75.0872 27.519 72.0274 27.519 68.2662C27.5195 64.5051 30.5786 61.4452 34.34 61.4452C38.1019 61.445 41.161 64.5051 41.161 68.2662C41.1613 72.0274 38.1014 75.0873 34.34 75.0872Z" fill="white" stroke="white" stroke-width="0.3"/>
<path fill-rule="evenodd" clip-rule="evenodd" d="M32.5827 66.3308C32.5807 66.3315 32.5807 66.3325 32.5807 66.3332L32.5827 66.3308ZM36.9409 68.9228V68.9288C36.9409 68.9268 36.9403 68.9251 36.9403 68.923L36.9409 68.9228ZM31.8863 69.3889C31.8876 69.3903 31.8892 69.3918 31.8906 69.393L31.8863 69.3889ZM34.334 69.3506C34.5226 69.3506 34.7086 69.396 34.879 69.486L35.3468 69.7335L35.2583 69.211C35.1929 68.8355 35.3187 68.4479 35.5971 68.1787L35.9767 67.8106L35.4535 67.7329C35.073 67.6743 34.7472 67.4357 34.5783 67.0943L34.3446 66.6157L34.1094 67.0902C33.9388 67.434 33.6098 67.6727 33.2292 67.727L32.704 67.8012L33.0811 68.1718C33.3557 68.438 33.4811 68.8259 33.4143 69.2067L33.3244 69.7264L33.7922 69.4819C33.9641 69.3943 34.1489 69.3508 34.334 69.3506ZM36.3098 70.2432L36.3112 70.2442C36.3112 70.2439 36.3095 70.2436 36.3098 70.2432ZM33.1365 70.802L33.1345 70.8027C33.1345 70.8027 33.136 70.8025 33.136 70.8022L33.1365 70.802ZM35.5282 70.8097C35.5282 70.8103 35.5275 70.8109 35.5275 70.8113L35.5282 70.8097ZM36.0613 71.8889C35.8747 71.8889 35.686 71.8436 35.5113 71.7512L34.33 71.1256L33.1438 71.7443C32.7453 71.9512 32.2741 71.9153 31.9143 71.6506C31.5531 71.3861 31.3781 70.9485 31.4552 70.5083L31.6851 69.1917L30.7301 68.2544C30.4102 67.9408 30.2986 67.4825 30.4378 67.058C30.5775 66.6331 30.9383 66.3295 31.3811 66.266L32.7066 66.0779L33.3037 64.8794C33.5037 64.4786 33.9031 64.2315 34.3488 64.2315C34.3506 64.2313 34.3518 64.2315 34.3532 64.2315C34.8005 64.2333 35.2003 64.4836 35.3973 64.8848C35.3973 64.8847 35.3976 64.8848 35.3973 64.8848L35.9852 66.0872L37.308 66.2832C37.7506 66.3488 38.1103 66.6542 38.248 67.0802C38.3844 67.5064 38.2702 67.9647 37.9488 68.2761L36.9882 69.2064L37.2102 70.5264C37.2854 70.9673 37.1062 71.405 36.7419 71.6672C36.539 71.8143 36.3006 71.8892 36.0606 71.8892L36.0613 71.8889Z" fill="white"/>
<path d="M36.1099 66.3415H36.1113M31.7337 68.9121C31.7337 68.9124 31.7335 68.9126 31.7335 68.9128M34.0808 70.9933C34.0808 70.9936 34.0808 70.9938 34.0808 70.9939M35.3973 64.8848C35.2003 64.4836 34.8005 64.2333 34.3532 64.2315C34.3518 64.2315 34.3506 64.2313 34.3488 64.2315C33.9031 64.2315 33.5037 64.4786 33.3037 64.8794L32.7066 66.0779L31.3811 66.266C30.9383 66.3295 30.5775 66.6331 30.4378 67.058C30.2986 67.4825 30.4102 67.9408 30.7301 68.2544L31.6851 69.1917L31.4552 70.5083C31.3781 70.9485 31.5531 71.3861 31.9143 71.6506C32.2741 71.9153 32.7453 71.9512 33.1438 71.7443L34.33 71.1256L35.5113 71.7512C35.686 71.8436 35.8747 71.8889 36.0613 71.8889L36.0606 71.8892C36.3006 71.8892 36.539 71.8143 36.7419 71.6672C37.1062 71.405 37.2854 70.9673 37.2102 70.5264L36.9882 69.2064L37.9488 68.2761C38.2702 67.9647 38.3844 67.5064 38.248 67.0802C38.1103 66.6542 37.7506 66.3488 37.308 66.2832L35.9852 66.0872L35.3973 64.8848ZM35.3973 64.8848C35.3976 64.8848 35.3973 64.8847 35.3973 64.8848ZM32.5827 66.3308C32.5807 66.3315 32.5807 66.3325 32.5807 66.3332L32.5827 66.3308ZM36.9409 68.9228V68.9288C36.9409 68.9268 36.9403 68.9251 36.9403 68.923L36.9409 68.9228ZM31.8863 69.3889C31.8876 69.3903 31.8892 69.3918 31.8906 69.393L31.8863 69.3889ZM34.334 69.3506C34.5226 69.3506 34.7086 69.396 34.879 69.486L35.3468 69.7335L35.2583 69.211C35.1929 68.8355 35.3187 68.4479 35.5971 68.1787L35.9767 67.8106L35.4535 67.7329C35.073 67.6743 34.7472 67.4357 34.5783 67.0943L34.3446 66.6157L34.1094 67.0902C33.9388 67.434 33.6098 67.6727 33.2292 67.727L32.704 67.8012L33.0811 68.1718C33.3557 68.438 33.4811 68.8259 33.4143 69.2067L33.3244 69.7264L33.7922 69.4819C33.9641 69.3943 34.1489 69.3508 34.334 69.3506ZM36.3098 70.2432L36.3112 70.2442C36.3112 70.2439 36.3095 70.2436 36.3098 70.2432ZM33.1365 70.802L33.1345 70.8027C33.1345 70.8027 33.136 70.8025 33.136 70.8022L33.1365 70.802ZM35.5282 70.8097C35.5282 70.8103 35.5275 70.8109 35.5275 70.8113L35.5282 70.8097Z" stroke="white" stroke-width="0.3"/>
<path fill-rule="evenodd" clip-rule="evenodd" d="M30.1874 73.4065H8.02038C6.23308 73.4065 4.77979 71.9534 4.77979 70.167L4.78036 31.7513C4.78036 29.9647 6.2326 28.5109 8.01995 28.5109L36.6648 28.5106C38.4507 28.5106 39.9048 29.9647 39.9048 31.7516V64.6027C39.9048 65.0738 39.5228 65.4556 39.0518 65.4556C38.5813 65.4556 38.1988 65.0739 38.1988 64.6027V31.7513C38.1988 30.9053 37.5103 30.2169 36.6647 30.2169L8.02038 30.2166C7.17467 30.2166 6.48572 30.9054 6.48572 31.7516L6.48634 70.1668C6.48634 71.0124 7.17433 71.7006 8.01995 71.7006L30.1874 71.7005C30.6585 71.7005 31.0402 72.0825 31.0402 72.5536C31.0404 73.0246 30.6582 73.4065 30.1874 73.4065Z" fill="white" stroke="white" stroke-width="0.3"/>
<path fill-rule="evenodd" clip-rule="evenodd" d="M31.3812 56.1562H16.1267C15.6563 56.1562 15.2737 55.7745 15.2737 55.3034C15.2737 54.8321 15.6557 54.4505 16.1266 54.4505L31.3812 54.4503C31.8524 54.4503 32.2342 54.8322 32.2342 55.3034C32.2342 55.7744 31.8522 56.1563 31.3812 56.1562ZM28.5291 67.751H16.1254C15.6543 67.751 15.2721 67.3695 15.2721 66.8983C15.2724 66.4272 15.6542 66.0455 16.1252 66.0455L28.5291 66.0454C29.0002 66.0454 29.382 66.4272 29.382 66.8983C29.3821 67.3695 29 67.7513 28.5291 67.751ZM33.1839 60.0215H13.1266C12.6555 60.0215 12.2749 59.6397 12.2749 59.1687C12.275 58.6973 12.6554 58.3157 13.1264 58.3157L33.1839 58.3155C33.655 58.3155 34.0364 58.6975 34.0364 59.1687C34.0369 59.6396 33.6544 60.0215 33.1839 60.0215ZM31.4672 63.8853H11.502C11.0295 63.8853 10.6489 63.5036 10.6489 63.0326C10.649 62.5615 11.0294 62.1797 11.5018 62.1797L31.4672 62.1796C31.9384 62.1796 32.3201 62.5615 32.3201 63.0326C32.3202 63.5035 31.938 63.8856 31.4672 63.8853ZM36.6118 78.749C36.5851 78.749 36.5568 78.7479 36.5302 78.7452C36.2166 78.715 35.9439 78.5142 35.8239 78.2228L34.2868 74.5157C34.1062 74.0802 34.3133 73.5814 34.7487 73.401C35.1831 73.2202 35.6817 73.4271 35.8624 73.8624L36.7851 76.0874L37.3362 75.2534C37.5301 74.9615 37.8808 74.8175 38.2245 74.8894L39.1648 75.0875L38.0839 72.4758C37.9033 72.0403 38.1104 71.5417 38.5456 71.3615C38.9816 71.181 39.4802 71.3879 39.6593 71.8233L41.3612 75.9294C41.4811 76.2217 41.4304 76.5572 41.2275 76.8007C41.0267 77.044 40.7063 77.1558 40.3968 77.0905L38.4397 76.6781L37.3228 78.3665C37.1642 78.6067 36.8959 78.7492 36.6118 78.749Z" fill="white"/>
<path fill-rule="evenodd" clip-rule="evenodd" d="M32.2341 38.677H16.9796C16.5092 38.677 16.1266 38.2953 16.1266 37.8243C16.1266 37.3529 16.5086 36.9713 16.9795 36.9713L32.2341 36.9711C32.7053 36.9711 33.0871 37.353 33.0871 37.8243C33.0871 38.2952 32.705 38.6771 32.2341 38.677ZM29.382 50.2718H16.9783C16.5072 50.2718 16.125 49.8903 16.125 49.4191C16.1253 48.948 16.5071 48.5663 16.9781 48.5663L29.382 48.5662C29.8531 48.5662 30.2349 48.948 30.2349 49.4191C30.235 49.8903 29.8529 50.2721 29.382 50.2718ZM34.0368 42.5423H13.9795C13.5084 42.5423 13.1278 42.1605 13.1278 41.6895C13.1279 41.2181 13.5083 40.8365 13.9793 40.8365L34.0368 40.8363C34.5079 40.8363 34.8893 41.2183 34.8893 41.6895C34.8897 42.1604 34.5073 42.5423 34.0368 42.5423ZM32.3201 46.4061H12.3549C11.8824 46.4061 11.5018 46.0245 11.5018 45.5534C11.5019 45.0823 11.8823 44.7005 12.3547 44.7005L32.3201 44.7004C32.7913 44.7004 33.173 45.0823 33.173 45.5534C33.1731 46.0243 32.7909 46.4064 32.3201 46.4061Z" fill="white"/>
<path fill-rule="evenodd" clip-rule="evenodd" d="M31.3812 56.1562H16.1267C15.6563 56.1562 15.2737 55.7745 15.2737 55.3034C15.2737 54.8321 15.6557 54.4505 16.1266 54.4505L31.3812 54.4503C31.8524 54.4503 32.2342 54.8322 32.2342 55.3034C32.2342 55.7744 31.8522 56.1563 31.3812 56.1562ZM28.5291 67.751H16.1254C15.6543 67.751 15.2721 67.3695 15.2721 66.8983C15.2724 66.4272 15.6542 66.0455 16.1252 66.0455L28.5291 66.0454C29.0002 66.0454 29.382 66.4272 29.382 66.8983C29.3821 67.3695 29 67.7513 28.5291 67.751ZM33.1839 60.0215H13.1266C12.6555 60.0215 12.2749 59.6397 12.2749 59.1687C12.275 58.6973 12.6554 58.3157 13.1264 58.3157L33.1839 58.3155C33.655 58.3155 34.0364 58.6975 34.0364 59.1687C34.0369 59.6396 33.6544 60.0215 33.1839 60.0215ZM31.4672 63.8853H11.502C11.0295 63.8853 10.6489 63.5036 10.6489 63.0326C10.649 62.5615 11.0294 62.1797 11.5018 62.1797L31.4672 62.1796C31.9384 62.1796 32.3201 62.5615 32.3201 63.0326C32.3202 63.5035 31.938 63.8856 31.4672 63.8853ZM36.6118 78.749C36.5851 78.749 36.5568 78.7479 36.5302 78.7452C36.2166 78.715 35.9439 78.5142 35.8239 78.2228L34.2868 74.5157C34.1062 74.0802 34.3133 73.5814 34.7487 73.401C35.1831 73.2202 35.6817 73.4271 35.8624 73.8624L36.7851 76.0874L37.3362 75.2534C37.5301 74.9615 37.8808 74.8175 38.2245 74.8894L39.1648 75.0875L38.0839 72.4758C37.9033 72.0403 38.1104 71.5417 38.5456 71.3615C38.9816 71.181 39.4802 71.3879 39.6593 71.8233L41.3612 75.9294C41.4811 76.2217 41.4304 76.5572 41.2275 76.8007C41.0267 77.044 40.7063 77.1558 40.3968 77.0905L38.4397 76.6781L37.3228 78.3665C37.1642 78.6067 36.8959 78.7492 36.6118 78.749Z" stroke="white" stroke-width="0.3"/>
<path fill-rule="evenodd" clip-rule="evenodd" d="M32.2341 38.677H16.9796C16.5092 38.677 16.1266 38.2953 16.1266 37.8243C16.1266 37.3529 16.5086 36.9713 16.9795 36.9713L32.2341 36.9711C32.7053 36.9711 33.0871 37.353 33.0871 37.8243C33.0871 38.2952 32.705 38.6771 32.2341 38.677ZM29.382 50.2718H16.9783C16.5072 50.2718 16.125 49.8903 16.125 49.4191C16.1253 48.948 16.5071 48.5663 16.9781 48.5663L29.382 48.5662C29.8531 48.5662 30.2349 48.948 30.2349 49.4191C30.235 49.8903 29.8529 50.2721 29.382 50.2718ZM34.0368 42.5423H13.9795C13.5084 42.5423 13.1278 42.1605 13.1278 41.6895C13.1279 41.2181 13.5083 40.8365 13.9793 40.8365L34.0368 40.8363C34.5079 40.8363 34.8893 41.2183 34.8893 41.6895C34.8897 42.1604 34.5073 42.5423 34.0368 42.5423ZM32.3201 46.4061H12.3549C11.8824 46.4061 11.5018 46.0245 11.5018 45.5534C11.5019 45.0823 11.8823 44.7005 12.3547 44.7005L32.3201 44.7004C32.7913 44.7004 33.173 45.0823 33.173 45.5534C33.1731 46.0243 32.7909 46.4064 32.3201 46.4061Z" stroke="white" stroke-width="0.3"/>
<path fill-rule="evenodd" clip-rule="evenodd" d="M32.0715 78.7351C31.7856 78.7351 31.5143 78.5911 31.3574 78.3484L30.2636 76.6726L28.279 77.0765C27.9712 77.1391 27.6507 77.0263 27.4508 76.7831C27.2515 76.5396 27.2005 76.2057 27.3205 75.9142L29.0181 71.8186C29.1974 71.3834 29.6959 71.1769 30.1312 71.3572C30.5668 71.5373 30.7739 72.0364 30.5933 72.4716L29.5112 75.0849L30.4915 74.8853C30.8334 74.816 31.1841 74.9625 31.3751 75.2556L31.9029 76.0615L32.8119 73.8624C32.9925 73.4272 33.4914 73.2207 33.9267 73.4007C34.3626 73.5805 34.5694 74.0798 34.3887 74.5151L32.8592 78.2083C32.7379 78.5009 32.4651 78.7023 32.1497 78.7316C32.1235 78.7341 32.0978 78.7353 32.0715 78.7351Z" fill="white" stroke="white" stroke-width="0.3"/>
</g>
<defs>
<clipPath id="clip0_322_127">
<rect width="83" height="83" fill="white"/>
</clipPath>
</defs>
</svg>
