<svg width="83" height="69" viewBox="0 0 83 69" fill="none" xmlns="http://www.w3.org/2000/svg">
<path d="M41.5152 48.3545C40.5971 47.6591 39.4695 47.4293 38.4177 47.6254C38.2524 46.6287 37.7218 45.7475 36.9133 45.1351C36.0755 44.5006 35.0411 44.2305 34 44.3741C33.742 44.4098 33.4915 44.4699 33.2506 44.5528C33.0223 43.77 32.5505 43.0511 31.8519 42.5221C30.7013 41.6506 29.2221 41.5111 27.9751 42.024C27.7268 41.2767 27.2604 40.6216 26.6191 40.1358C25.7815 39.5013 24.7465 39.2314 23.7058 39.3749C22.8617 39.4914 22.0956 39.8689 21.4976 40.454L17.3691 40.1796L19.8996 19.6239L24.4338 19.932C24.4595 19.9337 24.4851 19.9346 24.5105 19.9346C24.9313 19.9346 25.3201 19.6994 25.5139 19.321L27.2132 16.0054C27.6437 15.166 28.6157 14.7394 29.5245 14.991L32.0481 15.6888C32.648 15.8544 33.2697 15.5026 33.4359 14.9022C33.6019 14.3019 33.2497 13.6805 32.6493 13.5144L30.1262 12.8168C28.1922 12.2814 26.1229 13.1892 25.2062 14.9759L23.8457 17.6308L20.1758 17.3814L20.2628 16.6752C20.5407 14.418 18.9305 12.3557 16.6733 12.0778L7.98255 11.0085C7.36325 10.9327 6.80139 11.372 6.72529 11.9901C6.6492 12.6083 7.08878 13.1713 7.70689 13.2474L16.3976 14.3172C16.893 14.3781 17.335 14.6284 17.6421 15.0218C17.9492 15.4152 18.0848 15.9047 18.0238 16.4001L15.0394 40.6429C14.9136 41.6654 13.979 42.3944 12.9565 42.2693L4.26582 41.1994C3.64682 41.1239 3.08466 41.5627 3.00856 42.181C2.93247 42.7992 3.37205 43.3621 3.99016 43.4382L12.6809 44.5081C12.8511 44.529 13.0203 44.5392 13.1877 44.5392C14.7111 44.5392 16.0855 43.6928 16.7976 42.4026L19.8862 42.6079C19.517 43.3226 19.3755 44.1315 19.4877 44.9447C19.6314 45.9855 20.1719 46.9083 21.0096 47.5427C21.7003 48.0659 22.5248 48.3412 23.3766 48.3412C23.5578 48.3412 23.7402 48.3288 23.923 48.3036C23.9347 48.302 23.9461 48.2997 23.9577 48.2979C23.9592 48.3097 23.9601 48.3212 23.9616 48.333C24.1054 49.3738 24.6459 50.2966 25.4835 50.9309C26.1926 51.4678 27.0264 51.7273 27.854 51.7273C28.048 51.7273 28.2415 51.7115 28.4331 51.6832C28.5631 52.695 29.0821 53.6562 29.9576 54.3192C30.6667 54.8563 31.5005 55.1155 32.3281 55.1155C32.5215 55.1155 32.7144 55.0999 32.9054 55.0718C32.9071 55.0843 32.908 55.0969 32.9096 55.1094C33.0534 56.1502 33.5939 57.073 34.4317 57.7074C35.1225 58.2304 35.9469 58.5059 36.7986 58.5059C36.9799 58.5059 37.1624 58.4934 37.3449 58.4683C38.3859 58.3246 39.3086 57.7841 39.9429 56.9464L42.2761 53.8657C43.586 52.1365 43.2446 49.6641 41.5152 48.3545ZM23.6145 46.0691C23.1707 46.1305 22.7292 46.0152 22.3718 45.7445C22.0145 45.4739 21.784 45.0802 21.7226 44.6362C21.6612 44.1921 21.7766 43.7509 22.0473 43.3934L22.9065 42.2589C23.177 41.9016 23.5707 41.671 24.0147 41.6096C24.4588 41.5487 24.9 41.6636 25.2575 41.9343C25.6148 42.2049 25.8454 42.5986 25.9067 43.0426C25.9681 43.4865 25.8528 43.9278 25.5822 44.2852L24.7229 45.4198C24.4522 45.7771 24.0586 46.0078 23.6145 46.0691ZM26.8458 49.1327C26.4885 48.8622 26.2579 48.4685 26.1965 48.0245C26.1352 47.5804 26.2505 47.1392 26.5212 46.7817L27.3804 45.6473C27.3804 45.6473 27.3806 45.6472 27.3806 45.647L28.1393 44.6451C28.4689 44.2099 28.9711 43.9808 29.4791 43.9808C29.8321 43.9808 30.1877 44.0915 30.4902 44.3206C31.2278 44.8793 31.3736 45.9338 30.8149 46.6716L29.1968 48.8082C28.6381 49.5459 27.5834 49.6914 26.8458 49.1327ZM31.3199 52.521C30.9625 52.2505 30.732 51.8567 30.6706 51.4126C30.6093 50.9688 30.7245 50.5276 30.9949 50.1704C30.995 50.1703 30.995 50.1701 30.9952 50.17L32.6132 48.0332L33.2003 47.258C33.4709 46.9007 33.8646 46.6701 34.3087 46.6087C34.753 46.5477 35.1941 46.6627 35.5515 46.9334C36.2889 47.4918 36.4346 48.5459 35.8767 49.2836L33.6709 52.1962C33.6708 52.1963 33.6706 52.1965 33.6706 52.1966C33.1118 52.934 32.0577 53.0797 31.3199 52.521ZM40.478 52.5039L38.1449 55.5846C37.8743 55.9419 37.4806 56.1725 37.0366 56.2338C36.5922 56.295 36.1511 56.1798 35.7938 55.9093C35.4365 55.6387 35.2059 55.245 35.1446 54.8011C35.0832 54.357 35.1986 53.9157 35.4693 53.5583L37.6746 50.6464C37.675 50.646 37.6753 50.6454 37.6758 50.6449L37.8026 50.4775C38.0731 50.1202 38.4668 49.8896 38.9109 49.8283C39.355 49.7674 39.7963 49.8823 40.1538 50.153C40.891 50.7114 41.0367 51.7662 40.478 52.5039Z" fill="white"/>
<path d="M79.991 42.1809C79.9149 41.5628 79.3526 41.1238 78.7337 41.1993L70.0432 42.2692C69.0192 42.3951 68.0862 41.6654 67.9603 40.6429L67.8712 39.9194L67.8506 39.7518L64.9761 16.4001C64.915 15.9047 65.0507 15.4153 65.3578 15.0217C65.6649 14.6283 66.1069 14.3781 66.6023 14.3172L75.293 13.2473C75.9112 13.1712 76.3507 12.6083 76.2746 11.99C76.1985 11.3719 75.6362 10.933 75.0173 11.0084L66.3266 12.0783C64.2026 12.3398 62.6521 14.1814 62.7079 16.2786L60.5163 16.5484L53.7298 12.7292C52.7688 12.1878 51.6794 11.9553 50.5793 12.0564C50.577 12.0565 50.5748 12.0571 50.5725 12.0573L48.5298 12.2462C47.9094 12.3035 47.4531 12.8528 47.5106 13.4732C47.5679 14.0934 48.1164 14.5489 48.7376 14.4924L50.7861 14.3029C51.427 14.2436 52.0623 14.3793 52.6229 14.6948L59.6592 18.6546C59.8794 18.7998 60.1474 18.8663 60.4184 18.8331L62.9639 18.5198L64.831 33.6856L65.4766 38.9302L61.4165 38.9336C61.1458 38.9337 60.8844 39.0313 60.6801 39.208L60.3659 39.4525L50.1728 30.6674C52.5022 29.9977 54.7227 28.3778 56.7988 25.8283C57.1921 25.3452 57.1194 24.6348 56.6364 24.2414C56.1533 23.8481 55.4427 23.9208 55.0495 24.4038C52.729 27.2537 50.289 28.7206 47.7974 28.7636C44.1674 28.8319 41.5003 25.822 41.4758 25.7939C41.2539 25.5373 40.9288 25.3953 40.5898 25.4036C40.2508 25.4132 39.9343 25.575 39.7276 25.8438L36.6977 29.787C35.1013 31.8648 32.3818 32.639 29.9303 31.7129L29.6069 31.5906C29.3228 31.4832 29.207 31.2613 29.1634 31.1384C29.1197 31.0155 29.0692 30.7703 29.2217 30.5077L37.1298 16.8964C37.6413 16.016 38.552 15.4344 39.566 15.3406L44.248 14.9076C44.8684 14.8502 45.3247 14.3008 45.2672 13.6806C45.2098 13.0604 44.6604 12.6042 44.0402 12.6614L39.3581 13.0944C37.6189 13.2553 36.0566 14.253 35.1791 15.7632L27.271 29.3745C26.8258 30.1409 26.7407 31.0593 27.0377 31.8944C27.3348 32.7295 27.9807 33.3879 28.8096 33.701L29.1331 33.8233C30.0872 34.1836 31.0703 34.3576 32.0403 34.3576C34.5147 34.3575 36.9014 33.2245 38.4865 31.1616L40.747 28.2196C41.9584 29.2636 44.2183 30.81 47.103 30.9999L61.833 43.6952C62.0978 43.9233 62.258 44.241 62.2838 44.5896C62.3097 44.9382 62.1984 45.2761 61.9706 45.5406L61.3965 46.2064C60.6754 47.0417 59.4078 47.1344 58.571 46.4136C58.5242 46.3733 58.4745 46.3387 58.4235 46.3075L54.5997 43.0103C54.1282 42.6037 53.4158 42.6563 53.0088 43.1281C52.602 43.5998 52.6548 44.3121 53.1266 44.7189L56.2339 47.3982L54.8165 49.0432C54.381 49.5484 53.7256 49.8036 53.064 49.7258C52.6681 49.6792 52.2973 49.5154 51.9921 49.2521C51.9866 49.2474 51.9808 49.2435 51.9754 49.239L48.4224 46.1756C47.9506 45.7689 47.2385 45.8215 46.8316 46.2933C46.4248 46.7651 46.4776 47.4773 46.9493 47.8841L49.6645 50.2253L48.2386 51.8812C47.803 52.3865 47.146 52.6417 46.4843 52.5638C45.8655 52.4907 45.3051 52.9338 45.2325 53.5523C45.1599 54.171 45.6023 54.7315 46.221 54.8042C46.3881 54.8237 46.5547 54.8335 46.7207 54.8335C47.9524 54.8335 49.1313 54.3001 49.9477 53.3537L51.472 51.5834C51.8884 51.7819 52.3361 51.9117 52.8005 51.9663C54.2082 52.1317 55.5998 51.5896 56.5252 50.5161L58.0522 48.7441C59.7407 49.545 61.8263 49.1608 63.1046 47.6799L63.6794 47.0132C64.3008 46.2918 64.6042 45.3716 64.5336 44.4222C64.4631 43.4726 64.0268 42.6074 63.3059 41.9865L62.3801 41.1886L65.764 41.1858C66.1338 43.1348 67.849 44.5393 69.8117 44.5393C69.979 44.5393 70.1484 44.5291 70.3185 44.5082L79.0093 43.4383C79.6275 43.3621 80.0671 42.7993 79.991 42.1809Z" fill="white"/>
<path d="M72.7811 34.0386C70.9569 34.0386 69.4727 35.5226 69.4727 37.3469C69.4727 39.1711 70.9569 40.6553 72.7811 40.6553C74.6053 40.6553 76.0894 39.1711 76.0894 37.3469C76.0894 35.5226 74.6053 34.0386 72.7811 34.0386ZM72.7811 38.3994C72.2007 38.3994 71.7285 37.9272 71.7285 37.3469C71.7285 36.7665 72.2007 36.2944 72.7811 36.2944C73.3614 36.2944 73.8335 36.7665 73.8335 37.3469C73.8335 37.9272 73.3614 38.3994 72.7811 38.3994Z" fill="white"/>
<path d="M13.4056 37.3469C13.4056 35.5226 11.9216 34.0386 10.0973 34.0386C8.27311 34.0386 6.78906 35.5226 6.78906 37.3469C6.78906 39.1711 8.27311 40.6553 10.0973 40.6553C11.9216 40.6553 13.4056 39.1711 13.4056 37.3469ZM9.04492 37.3469C9.04492 36.7665 9.51699 36.2944 10.0973 36.2944C10.6777 36.2944 11.1498 36.7665 11.1498 37.3469C11.1498 37.9272 10.6777 38.3994 10.0973 38.3994C9.51699 38.3994 9.04492 37.9272 9.04492 37.3469Z" fill="white"/>
</svg>
