<svg width="82" height="83" viewBox="0 0 82 83" fill="none" xmlns="http://www.w3.org/2000/svg">
<path d="M61.2398 51.2958C61.8655 51.4972 62.2107 52.1667 62.0111 52.7981C61.8115 53.4241 61.1428 53.7725 60.5225 53.5711L61.2398 51.2958ZM42.7566 44.2302L43.9486 42.1617L44.7899 42.6571L45.6151 43.1306L46.4188 43.5988L47.2062 44.0506L47.9721 44.4915L48.7164 44.9161L49.4445 45.3298L50.151 45.7271L50.8414 46.1136L51.5101 46.4838L52.1627 46.843L52.7938 47.1914L53.4032 47.5235L53.9965 47.8446L54.5682 48.1495L55.1183 48.4434L55.6523 48.721L56.17 48.9877L56.6608 49.2381L57.1355 49.4777L57.5939 49.7063L58.0254 49.9186L58.4407 50.1145L58.8344 50.3051L59.2119 50.4738L59.5625 50.6317L59.8969 50.7786L60.2097 50.9093L60.5009 51.0236L60.7706 51.127L61.0187 51.2195L61.2398 51.2958L60.5225 53.5711L60.2421 53.4786L59.9508 53.3697L59.6434 53.2554L59.3198 53.1247L58.9746 52.9778L58.6186 52.8254L58.2411 52.6566L57.8474 52.477L57.4321 52.281L57.0006 52.0742L56.553 51.8564L56.0837 51.6224L55.5983 51.3774L55.0914 51.1161L54.5682 50.8439L54.0235 50.5609L53.4626 50.2615L52.8801 49.9512L52.2814 49.6301L51.6611 49.2926L51.0247 48.9442L50.3721 48.5795L49.6926 48.2039L49.0022 47.8174L48.2849 47.4146L47.5568 47.0009L46.8017 46.5709L46.0304 46.13L45.243 45.6727L44.434 45.2046L43.6034 44.7255L42.7566 44.2302ZM42.7566 44.2302C42.1903 43.9036 42.0016 43.1687 42.3252 42.5972C42.6542 42.0256 43.3823 41.8297 43.9486 42.1617L42.7566 44.2302ZM50.4153 60.3264C51.0517 60.4842 51.44 61.132 51.2836 61.7689C51.1272 62.4112 50.4854 62.8031 49.849 62.6453L50.4153 60.3264ZM40.8312 59.0853L42.1634 57.1039L42.5409 57.3652L42.8915 57.5992L43.2205 57.817L43.5333 58.0184L43.8191 58.198L44.0942 58.3613L44.3477 58.5137L44.585 58.6444L44.8115 58.7696L45.0219 58.8784L45.2214 58.9764L45.4156 59.0635L45.599 59.1397L45.7823 59.2105L45.9603 59.2758L46.1329 59.3357L46.3163 59.3901L46.4997 59.4445L46.6884 59.4935L46.888 59.5425L47.0929 59.5915L47.3141 59.6405L47.546 59.6895L47.7941 59.7385L48.053 59.7929L48.3334 59.8528L48.6301 59.9127L48.9429 59.9834L49.2773 60.0596L49.6332 60.1359L50.0108 60.2284L50.4153 60.3264L49.849 62.6453L49.466 62.5527L49.1047 62.4711L48.7649 62.3894L48.4413 62.3187L48.1393 62.2533L47.8534 62.1935L47.5783 62.139L47.3141 62.0846L47.0606 62.0302L46.8125 61.9757L46.5752 61.9267L46.3379 61.8669L46.1059 61.8124L45.874 61.7525L45.6421 61.6872L45.4102 61.611L45.1783 61.5348L44.9464 61.4477L44.709 61.3552L44.4663 61.2518L44.2236 61.1429L43.9701 61.0177L43.7113 60.887L43.447 60.7455L43.1719 60.5877L42.8861 60.4189L42.584 60.2393L42.2712 60.0379L41.9368 59.8256L41.5917 59.597L41.2195 59.3466L40.8312 59.0853ZM40.8312 59.0853C40.2918 58.7097 40.1516 57.9694 40.5184 57.4196C40.8851 56.8753 41.624 56.7337 42.1634 57.1039L40.8312 59.0853ZM63.6345 47.4908C63.0844 47.1261 62.9388 46.3858 63.3001 45.836C63.6561 45.2808 64.395 45.1338 64.9397 45.4985L63.6345 47.4908ZM67 49.3633H64.6269V49.2871V49.2164L64.6215 49.1402L64.6107 49.0694L64.5999 48.9986L64.5891 48.9279L64.573 48.8625L64.5568 48.7918L64.5406 48.7265L64.519 48.6611L64.4975 48.5958L64.4705 48.5305L64.4489 48.4652L64.4166 48.4053L64.3896 48.3454L64.3572 48.2855L64.3249 48.2257L64.2871 48.1658L64.2494 48.1114L64.2116 48.0515L64.1739 47.997L64.1307 47.9426L64.0876 47.8936L64.0444 47.8446L63.9959 47.7956L63.9473 47.7466L63.8988 47.6977L63.8449 47.6541L63.7963 47.6106L63.7424 47.567L63.6884 47.5289L63.6345 47.4908L64.9397 45.4985L65.053 45.5747L65.1662 45.6564L65.2741 45.7435L65.382 45.8306L65.4898 45.9231L65.5869 46.0211L65.6894 46.1191L65.7811 46.2225L65.8728 46.3259L65.9645 46.4293L66.0508 46.5437L66.1317 46.6525L66.2126 46.7723L66.2881 46.8866L66.3636 47.0063L66.4337 47.1315L66.4984 47.2567L66.5577 47.3819L66.6171 47.5126L66.671 47.6432L66.7249 47.7793L66.7681 47.9154L66.8112 48.0515L66.849 48.193L66.8867 48.3345L66.9137 48.4761L66.9407 48.6176L66.9622 48.7646L66.9784 48.9115L66.9892 49.0639L66.9946 49.2109L67 49.3633ZM67 49.3633C67 50.022 66.4661 50.5554 65.8135 50.5554C65.1609 50.5554 64.6269 50.022 64.6269 49.3633H67ZM62.4102 53.9957V51.6006H62.5235L62.6367 51.5897L62.75 51.5734L62.8579 51.557L62.9657 51.5298L63.0682 51.5026L63.1707 51.4645L63.2732 51.4264L63.3702 51.3828L63.4673 51.3339L63.559 51.2794L63.6507 51.2195L63.737 51.1597L63.8233 51.0889L63.9042 51.0181L63.9797 50.9474L64.0552 50.8657L64.1253 50.7841L64.19 50.7024L64.2494 50.6153L64.3087 50.5228L64.3626 50.4302L64.4112 50.3323L64.4543 50.2343L64.4975 50.1309L64.5298 50.0274L64.5568 49.924L64.5838 49.8151L64.6053 49.7063L64.6161 49.592L64.6269 49.4777V49.3633H67L66.9946 49.5974L66.973 49.8315L66.9461 50.0655L66.9029 50.2942L66.8544 50.5173L66.7897 50.7405L66.7195 50.9528L66.6386 51.1651L66.547 51.372L66.4445 51.5679L66.3312 51.7639L66.2126 51.9544L66.0885 52.134L65.9483 52.3082L65.8081 52.477L65.657 52.6348L65.4952 52.7872L65.328 52.9342L65.1555 53.0703L64.9775 53.2009L64.7887 53.3207L64.5999 53.435L64.4004 53.5384L64.1954 53.631L63.9851 53.7126L63.7747 53.7834L63.5536 53.8487L63.3325 53.8977L63.106 53.9413L62.8794 53.9685L62.6421 53.9848L62.4102 53.9957ZM62.4102 53.9957C61.7522 53.9957 61.2237 53.4568 61.2237 52.7981C61.2237 52.1395 61.7522 51.6006 62.4102 51.6006V53.9957ZM61.9032 51.8238L59.8591 53.0376L61.4124 51.3665L61.4394 51.3774L61.4718 51.3937L61.4987 51.4046L61.5257 51.4209L61.5581 51.4318L61.585 51.4427L61.6174 51.4536L61.6443 51.4645L61.6767 51.4754L61.7037 51.4863L61.736 51.4972L61.763 51.508L61.7954 51.5135L61.8277 51.5244L61.8547 51.5298L61.887 51.5407L61.9194 51.5461L61.9518 51.557L61.9841 51.5625L62.0111 51.5679L62.0489 51.5734L62.0812 51.5788L62.1082 51.5843H62.1405L62.1783 51.5897L62.2107 51.5951H62.243L62.2754 51.6006H62.3077H62.3401H62.3725H62.4102V53.9957L62.3401 53.9902H62.27H62.2053L62.1351 53.9848L62.065 53.9794L62.0003 53.9739L61.9302 53.9685L61.8655 53.963L61.7954 53.9521L61.7306 53.9413L61.6605 53.9304L61.5958 53.9195L61.5311 53.9086L61.4664 53.8923L61.4016 53.8814L61.3369 53.865L61.2722 53.8487L61.2075 53.8324L61.1428 53.8161L61.078 53.7943L61.0133 53.7725L60.954 53.7562L60.8893 53.7344L60.8299 53.7126L60.7652 53.6854L60.7059 53.6636L60.6466 53.6364L60.5818 53.6092L60.5225 53.5874L60.4632 53.5602L60.4093 53.5276L60.3499 53.5003L61.9032 51.8238ZM60.3499 53.5003C59.762 53.2009 59.5301 52.4824 59.8214 51.8945C60.118 51.3066 60.8299 51.0671 61.4124 51.3665L60.3499 53.5003ZM62.5774 54.3332H60.2097V54.2896L60.2043 54.2461V54.2025V54.159L60.1989 54.1154L60.1935 54.0719L60.1881 54.0283L60.1827 53.9848L60.1773 53.9413L60.1719 53.8977L60.1666 53.8542L60.1558 53.8161L60.145 53.7725L60.1396 53.7344L60.1288 53.6909L60.118 53.6527L60.1072 53.6092L60.091 53.5711L60.0803 53.5276L60.0695 53.4894L60.0533 53.4513L60.0371 53.4132L60.0209 53.3751L60.0101 53.337L59.9886 53.2935L59.9724 53.2608L59.9562 53.2227L59.94 53.1846L59.9185 53.1465L59.9023 53.1084L59.8807 53.0757L59.8591 53.0376L61.9032 51.8238L61.941 51.8945L61.9787 51.9653L62.0165 52.0361L62.0542 52.1068L62.092 52.1776L62.1244 52.2538L62.1567 52.3246L62.1891 52.4008L62.2214 52.477L62.2484 52.5532L62.2754 52.6239L62.3023 52.7002L62.3293 52.7818L62.3563 52.858L62.3779 52.9342L62.3994 53.0159L62.421 53.0921L62.4426 53.1737L62.4587 53.2554L62.4749 53.3316L62.4911 53.4132L62.5073 53.4949L62.5181 53.5765L62.5343 53.6582L62.545 53.7453L62.5504 53.8269L62.5612 53.914L62.5666 53.9957L62.572 54.0773V54.1644L62.5774 54.2461V54.3332ZM62.5774 54.3332C62.5774 54.9918 62.0489 55.5307 61.3909 55.5307C60.7383 55.5307 60.2097 54.9918 60.2097 54.3332H62.5774ZM57.6694 59.2867V56.897L57.8042 56.8916L57.9337 56.8807L58.0577 56.8644L58.1818 56.8426L58.3058 56.8154L58.4245 56.7773L58.5431 56.7392L58.6564 56.6956L58.7697 56.6412L58.8775 56.5868L58.9854 56.5269L59.0879 56.4561L59.1903 56.3853L59.282 56.3091L59.3791 56.2275L59.4654 56.1458L59.5517 56.0533L59.6272 55.9608L59.7027 55.8628L59.7728 55.7648L59.8429 55.6614L59.9023 55.5525L59.9562 55.4436L60.0101 55.3293L60.0533 55.215L60.0964 55.0953L60.1288 54.9755L60.1558 54.8503L60.1773 54.7251L60.1935 54.5999L60.2043 54.4693L60.2097 54.3332H62.5774L62.572 54.589L62.5504 54.8394L62.5235 55.0844L62.4803 55.3293L62.421 55.5688L62.3563 55.8083L62.2808 56.037L62.1891 56.2601L62.092 56.4833L61.9841 56.6956L61.8655 56.9025L61.7414 57.1039L61.6012 57.2998L61.4556 57.4849L61.3046 57.6645L61.1428 57.8333L60.9702 58.002L60.7922 58.1544L60.6088 58.3014L60.4146 58.4375L60.2151 58.5681L60.0101 58.6879L59.7998 58.7968L59.5787 58.8948L59.3575 58.9873L59.131 59.0635L58.8937 59.1288L58.6564 59.1833L58.4191 59.2268L58.171 59.2595L57.9229 59.2812L57.6694 59.2867ZM57.6694 59.2867C57.0168 59.2867 56.4883 58.7478 56.4883 58.0891C56.4883 57.4305 57.0168 56.897 57.6694 56.897V59.2867ZM56.9305 58.8675H54.5574V58.6607L54.552 58.4756L54.5412 58.3232L54.525 58.1926L54.5143 58.0891L54.4981 58.0075L54.4873 57.953L54.4765 57.9149L54.4927 57.9476L54.525 58.0129L54.7678 58.3178L56.6339 56.9351L56.5691 56.8099L56.5314 56.7501L56.499 56.7174L56.4775 56.6902L56.5152 56.7065L56.5584 56.7283L56.6231 56.7555L56.704 56.7827L56.8065 56.8099L56.9305 56.8371L57.0815 56.8589L57.2487 56.8752L57.4483 56.8916L57.6694 56.897V59.2867L57.3512 59.2812L57.0546 59.2595L56.7741 59.2322L56.5098 59.1887L56.2671 59.1343L56.0352 59.0744L55.8249 59.0091L55.6307 58.9274L55.4527 58.8458L55.2855 58.7532L55.1399 58.6607L55.0051 58.5627L54.8864 58.4647L54.7839 58.3613L54.6976 58.2633L54.6221 58.1653L54.552 58.0619L54.4711 57.9095L56.3372 56.5214L56.5907 56.8426L56.6447 56.9515L56.6878 57.0549L56.7256 57.1638L56.7633 57.2835L56.7957 57.4141L56.828 57.5666L56.855 57.7299L56.882 57.9149L56.8982 58.1218L56.9143 58.3504L56.9251 58.5954L56.9305 58.8675ZM56.9305 58.8675C56.9305 59.5316 56.3966 60.0651 55.744 60.0651C55.0914 60.0651 54.5574 59.5316 54.5574 58.8675H56.9305ZM52.3407 63.4999V61.1102H52.454L52.5672 61.0993L52.6805 61.083L52.7884 61.0667L52.8962 61.0395L52.9987 61.0122L53.1012 60.9741L53.2037 60.936L53.3007 60.8925L53.3978 60.8435L53.4895 60.7891L53.5812 60.7292L53.6675 60.6639L53.7484 60.5985L53.8293 60.5278L53.9102 60.4516L53.9803 60.3754L54.0504 60.2937L54.1205 60.2121L54.1799 60.1195L54.2392 60.0324L54.2931 59.9345L54.3417 59.8419L54.3848 59.7439L54.4226 59.6405L54.4603 59.5371L54.4873 59.4282L54.5143 59.3248L54.5358 59.2105L54.5466 59.1016L54.5574 58.9873V58.8675H56.9305L56.9251 59.107L56.9035 59.3411L56.8766 59.5752L56.8334 59.8038L56.7849 60.027L56.7202 60.2447L56.6501 60.4625L56.5691 60.6748L56.4775 60.8762L56.375 61.0776L56.2617 61.2735L56.1431 61.4586L56.019 61.6437L55.8788 61.8179L55.7386 61.9866L55.5822 62.1445L55.4257 62.2969L55.2586 62.4439L55.086 62.5799L54.908 62.7106L54.7192 62.8303L54.5304 62.9447L54.3309 63.0426L54.1259 63.1352L53.9156 63.2223L53.7053 63.293L53.4841 63.3584L53.263 63.4073L53.0365 63.4509L52.8046 63.4781L52.5726 63.4944L52.3407 63.4999ZM52.3407 63.4999C51.6827 63.4999 51.1542 62.9664 51.1542 62.3078C51.1542 61.6437 51.6827 61.1102 52.3407 61.1102V63.4999ZM51.2512 61.0885L49.013 61.8832L50.9007 60.5768L50.9384 60.6094L50.9762 60.6366L51.0139 60.6693L51.0517 60.6965L51.0894 60.7237L51.1326 60.751L51.1704 60.7727L51.2135 60.7999L51.2566 60.8272L51.2944 60.8489L51.3375 60.8707L51.3807 60.8925L51.4238 60.9143L51.467 60.9306L51.5155 60.9524L51.5587 60.9687L51.6072 60.985L51.6504 61.0014L51.6989 61.0177L51.7421 61.0286L51.7906 61.0449L51.8391 61.0558L51.8877 61.0667L51.9362 61.0721L51.9848 61.083L52.0333 61.0885L52.0818 61.0939L52.1358 61.0993L52.1843 61.1048L52.2382 61.1102H52.2868H52.3407V63.4999H52.2328H52.1304L52.0225 63.489L51.92 63.4836L51.8176 63.4727L51.7151 63.4618L51.6126 63.4455L51.5101 63.4237L51.4077 63.4073L51.3106 63.3856L51.2081 63.3584L51.111 63.3311L51.0139 63.3039L50.9169 63.2767L50.8198 63.244L50.7281 63.2059L50.631 63.1733L50.5393 63.1297L50.4476 63.0916L50.3559 63.0481L50.2697 63.0045L50.178 62.9555L50.0917 62.9065L50.0054 62.8576L49.9245 62.8086L49.8382 62.7541L49.7573 62.6997L49.6764 62.6398L49.5955 62.5799L49.5146 62.5201L49.4391 62.4602L49.3636 62.3949L51.2512 61.0885ZM49.3636 62.3949C48.8674 61.9703 48.808 61.2136 49.2287 60.7129C49.6548 60.2066 50.4045 60.1467 50.9007 60.5768L49.3636 62.3949ZM51.4993 62.5582H49.1263V62.5364V62.5146V62.4928V62.4711V62.4493V62.4275L49.1209 62.4058V62.384V62.3622L49.1155 62.3404V62.3187L49.1101 62.2969V62.2751L49.1047 62.2533V62.2316L49.0993 62.2098L49.0939 62.188V62.1717L49.0885 62.1445L49.0831 62.1227L49.0777 62.1064L49.0723 62.0846L49.0669 62.0628L49.0615 62.041L49.0561 62.0247L49.0507 62.0029L49.0453 61.9812L49.04 61.9648L49.0346 61.9431L49.0292 61.9213L49.0238 61.905L49.013 61.8832L51.2512 61.0885L51.262 61.132L51.2782 61.1755L51.2944 61.2191L51.3052 61.2626L51.3214 61.3116L51.3322 61.3552L51.3429 61.3987L51.3537 61.4423L51.3699 61.4858L51.3807 61.5294L51.3861 61.5784L51.3969 61.6219L51.4077 61.6655L51.4184 61.7144L51.4238 61.758L51.4346 61.807L51.44 61.8505L51.4508 61.8941L51.4562 61.9431L51.4616 61.9921L51.467 62.0356L51.4724 62.0846L51.4778 62.1336L51.4832 62.1771V62.2261L51.4886 62.2751V62.3187L51.494 62.3677V62.4166V62.4656L51.4993 62.5146V62.5582ZM51.4993 62.5582C51.4993 63.2223 50.9654 63.7557 50.3128 63.7557C49.6602 63.7557 49.1263 63.2223 49.1263 62.5582H51.4993ZM47.0983 67V64.6049H47.2062L47.3087 64.594L47.4111 64.5831L47.5082 64.5668L47.6107 64.5396L47.7024 64.5124L47.7995 64.4797L47.8912 64.447L47.9775 64.4035L48.0691 64.3599L48.15 64.3109L48.2309 64.2565L48.3118 64.2021L48.3874 64.1368L48.4629 64.0769L48.533 64.0061L48.6031 63.9354L48.6678 63.8592L48.7271 63.7829L48.7811 63.7013L48.835 63.6196L48.8835 63.5325L48.9267 63.4455L48.9698 63.3529L49.0076 63.2658L49.0346 63.1678L49.0615 63.0699L49.0885 62.9719L49.1047 62.8739L49.1155 62.7705L49.1263 62.667V62.5582H51.4993L51.494 62.7868L51.4724 63.01L51.4454 63.2332L51.4077 63.4509L51.3591 63.6686L51.2998 63.8809L51.2297 64.0878L51.1488 64.2892L51.0625 64.4851L50.9654 64.6757L50.8575 64.8607L50.7443 65.0404L50.6256 65.2146L50.4908 65.3833L50.3559 65.5412L50.2103 65.699L50.0593 65.846L49.8975 65.9821L49.7303 66.1127L49.5577 66.2379L49.3797 66.3522L49.1964 66.4611L49.0076 66.5591L48.8134 66.6462L48.6139 66.7278L48.4089 66.7986L48.1986 66.8585L47.9828 66.9075L47.7671 66.9456L47.546 66.9728L47.3248 66.9891L47.0983 67ZM47.0983 67C46.4457 67 45.9172 66.4611 45.9172 65.8024C45.9172 65.1438 46.4457 64.6049 47.0983 64.6049V67ZM36.6944 64.7246L37.676 62.5473L37.9996 62.6943L38.3286 62.8303L38.663 62.9664L39.0028 63.0916L39.3426 63.2168L39.6824 63.3311L40.0276 63.44L40.3727 63.5434L40.7179 63.6414L41.0631 63.734L41.4029 63.8211L41.7427 63.9027L42.0825 63.9789L42.4168 64.0497L42.7458 64.115L43.0748 64.1803L43.3931 64.2347L43.7113 64.2892L44.0187 64.3382L44.3207 64.3817L44.612 64.4198L44.8978 64.4525L45.1729 64.4851L45.4372 64.5124L45.6906 64.5341L45.9334 64.5559L46.1653 64.5722L46.381 64.5831L46.586 64.594L46.7693 64.5995L46.9473 64.6049H47.0983V67L46.9096 66.9946L46.7046 66.9891L46.4835 66.9837L46.2516 66.9728L46.0089 66.9564L45.7554 66.9401L45.4857 66.9183L45.2106 66.8911L44.9194 66.8639L44.6228 66.8313L44.3099 66.7931L43.9971 66.7496L43.6681 66.7006L43.3391 66.6516L42.9993 66.5917L42.6488 66.5319L42.2982 66.4665L41.9422 66.3958L41.5755 66.3141L41.2087 66.2325L40.8366 66.1454L40.4644 66.0474L40.0923 65.9494L39.7094 65.8405L39.3318 65.7262L38.9543 65.6065L38.5713 65.4758L38.1938 65.3398L37.8163 65.1982L37.4387 65.0513L37.0666 64.8934L36.6944 64.7246ZM36.6944 64.7246C36.0958 64.4525 35.8369 63.7448 36.1066 63.1406C36.3762 62.5418 37.0774 62.2751 37.676 62.5473L36.6944 64.7246ZM55.9273 56.3146C56.5476 56.5105 56.8981 57.1801 56.6986 57.8115C56.5044 58.443 55.8356 58.7913 55.2154 58.5954L55.9273 56.3146ZM42.9023 52.8798L44.1697 50.8603L44.7037 51.2032L45.2106 51.5244L45.696 51.8238L46.1599 52.1068L46.5967 52.3735L47.0174 52.6239L47.4165 52.858L47.8049 53.0757L48.1716 53.2826L48.5276 53.4731L48.8674 53.6527L49.1964 53.8215L49.52 53.9848L49.8328 54.1318L50.1348 54.2733L50.4368 54.4094L50.7389 54.5346L51.0355 54.6598L51.3322 54.7795L51.6288 54.8938L51.9308 55.0027L52.2382 55.117L52.5565 55.2259L52.8747 55.3348L53.2091 55.4436L53.5542 55.5579L53.9102 55.6723L54.277 55.792L54.6653 55.9118L55.0644 56.0424L55.4851 56.1731L55.9273 56.3146L55.2154 58.5954L54.7785 58.4538L54.3579 58.3232L53.9587 58.1926L53.565 58.0728L53.1929 57.953L52.8261 57.8333L52.4756 57.719L52.1304 57.6047L51.7906 57.4904L51.4562 57.3706L51.1272 57.2563L50.7982 57.1311L50.4746 57.0059L50.151 56.8807L49.822 56.7446L49.493 56.6031L49.164 56.4561L48.8296 56.2982L48.4844 56.1349L48.1393 55.9608L47.7833 55.7811L47.4165 55.5852L47.039 55.3783L46.6453 55.166L46.2408 54.9319L45.8255 54.687L45.3886 54.4312L44.9302 54.1535L44.4556 53.8596L43.9648 53.5548L43.4416 53.2282L42.9023 52.8798ZM42.9023 52.8798C42.3467 52.526 42.1849 51.7857 42.5355 51.2304C42.8861 50.6698 43.6196 50.5065 44.1697 50.8603L42.9023 52.8798Z" fill="white"/>
<path d="M64.3069 47.9004C63.7131 48.1598 63.0231 47.8951 62.7556 47.3074C62.4935 46.725 62.761 46.0366 63.3547 45.7772L64.3069 47.9004ZM69.8862 40.6094L71.7585 42.0179L71.5712 42.2614L71.3787 42.4997L71.1807 42.738L70.9828 42.9656L70.7849 43.1986L70.5816 43.421L70.373 43.6434L70.1644 43.8605L69.9504 44.0722L69.7364 44.2787L69.5171 44.4852L69.2978 44.6864L69.0731 44.8876L68.8484 45.0783L68.6184 45.2689L68.3884 45.4595L68.153 45.6395L67.9177 45.8195L67.677 45.9943L67.4309 46.1637L67.1848 46.3278L66.9388 46.492L66.6873 46.6508L66.4359 46.8044L66.1792 46.9579L65.917 47.1062L65.6549 47.2491L65.3928 47.3868L65.1254 47.5192L64.8579 47.6515L64.5851 47.7786L64.3069 47.9004L63.3547 45.7772L63.5955 45.666L63.8362 45.5548L64.0715 45.4436L64.3069 45.3218L64.5369 45.2L64.7669 45.0783L64.9916 44.9459L65.2163 44.8188L65.441 44.6811L65.6549 44.5435L65.8742 44.4005L66.0882 44.2576L66.3022 44.1093L66.5108 43.9558L66.7194 43.7969L66.9227 43.6381L67.126 43.4792L67.3239 43.3098L67.5218 43.1404L67.7197 42.9656L67.9123 42.7909L68.1049 42.6109L68.2921 42.4256L68.4793 42.2402L68.6612 42.0496L68.8431 41.8537L69.025 41.6578L69.2015 41.4513L69.378 41.2501L69.5492 41.0383L69.7204 40.8265L69.8862 40.6094ZM69.8862 40.6094C70.2821 40.1011 71.0203 40.0005 71.5338 40.387C72.0527 40.7736 72.1543 41.5043 71.7585 42.0179L69.8862 40.6094ZM29.3226 25.2889C29.9752 25.2783 30.5048 25.7919 30.5155 26.4325C30.5262 27.0785 30.0073 27.6027 29.3547 27.6133L29.3226 25.2889ZM20.2289 24.852L22.1225 23.4754L22.2723 23.666L22.4167 23.8407L22.5612 23.9943L22.7056 24.1372L22.8554 24.2696L23.0051 24.3861L23.1549 24.492L23.31 24.5926L23.4705 24.6826L23.6364 24.762L23.8129 24.8362L24.0001 24.905L24.1927 24.9685L24.396 25.0268L24.6153 25.0744L24.8453 25.1221L25.086 25.1591L25.3428 25.1962L25.6102 25.2227L25.8937 25.2439L26.188 25.265L26.4982 25.2809L26.8245 25.2915L27.1615 25.2968H27.5146H27.8837H28.2688L28.6647 25.2915L29.0766 25.2862L29.5045 25.2809L28.8626 25.2942L29.3226 25.2889L29.3547 27.6133L28.9 27.6186L29.542 27.6054L29.1087 27.6159L28.6914 27.6212H28.2849L27.889 27.6265H27.5039L27.1294 27.6212L26.7657 27.6159L26.4073 27.6054L26.0596 27.5895L25.7226 27.5683L25.3856 27.5365L25.0593 27.5047L24.7383 27.4624L24.428 27.4094L24.1178 27.3512L23.8129 27.2771L23.5133 27.1977L23.2191 27.1023L22.9303 26.9964L22.6521 26.8747L22.3739 26.737L22.1011 26.5887L21.839 26.4193L21.5822 26.2393L21.3362 26.0434L21.1008 25.8369L20.8708 25.6092L20.6461 25.3709L20.4321 25.1168L20.2289 24.852ZM20.2289 24.852C19.8437 24.3332 19.9561 23.6025 20.4803 23.2265C21.0045 22.8453 21.7427 22.9565 22.1225 23.4754L20.2289 24.852Z" fill="white"/>
<path d="M11.3495 41.9812C11.2473 42.6403 10.6448 43.0851 9.99922 42.9863C9.35364 42.8819 8.9125 42.2613 9.01472 41.6078L11.3495 41.9812ZM19.3439 23.0778L20.7588 25.0055L20.2477 25.4064L19.7474 25.8128L19.2686 26.2137L18.8059 26.6256L18.3648 27.032L17.9344 27.4494L17.5255 27.8668L17.1274 28.2897L16.7455 28.7236L16.3796 29.1574L16.03 29.6023L15.691 30.0581L15.3682 30.5194L15.0562 30.9863L14.7603 31.4696L14.4752 31.9583L14.2008 32.4636L13.9372 32.9799L13.6898 33.5126L13.4477 34.0563L13.2217 34.6165L13.0011 35.1931L12.7913 35.7863L12.5977 36.3959L12.4094 37.022L12.2318 37.67L12.0597 38.3345L11.9037 39.021L11.753 39.7295L11.6078 40.4545L11.4787 41.2069L11.3495 41.9812L9.01472 41.6078L9.14921 40.795L9.28909 40.0041L9.43972 39.2352L9.59573 38.4883L9.76789 37.7524L9.9508 37.0384L10.1391 36.3409L10.3435 35.6599L10.5587 35.0009L10.7847 34.3528L11.0268 33.7158L11.2796 33.1007L11.5432 32.4911L11.823 31.9034L12.1135 31.3268L12.4201 30.7611L12.7429 30.2064L13.0765 29.6682L13.4261 29.1409L13.792 28.6192L14.1686 28.1139L14.5613 27.6142L14.9701 27.1309L15.3951 26.6531L15.8309 26.1808L16.2882 25.7194L16.7562 25.2636L17.2404 24.8133L17.7461 24.3739L18.2626 23.9345L18.7952 23.5062L19.3439 23.0778ZM19.3439 23.0778C19.8711 22.6769 20.6082 22.7867 21.0009 23.3194C21.3936 23.8522 21.286 24.6101 20.7588 25.0055L19.3439 23.0778ZM69.6449 41.6352L71.9851 41.2508C72.0874 41.9043 71.6516 42.5249 71.006 42.6348C70.3604 42.7391 69.7525 42.2943 69.6449 41.6352ZM61.7151 22.2265L62.1832 22.5835L62.6458 22.9625L63.0977 23.3744L63.5443 23.8082L63.9854 24.2641L64.4158 24.7419L64.8354 25.2416L65.255 25.7579L65.6639 26.2961L66.062 26.8508L66.4547 27.422L66.8367 28.0096L67.2079 28.6082L67.5737 29.2233L67.9288 29.8494L68.2677 30.4865L68.6013 31.1345L68.924 31.7881L69.2307 32.4526L69.532 33.1171L69.8171 33.7927L70.0861 34.4737L70.3443 35.1547L70.5918 35.8357L70.8177 36.5222L71.0329 37.2032L71.232 37.8897L71.4203 38.5707L71.587 39.2462L71.7377 39.9217L71.8668 40.5863L71.9851 41.2508L69.6449 41.6352L69.5427 41.0366L69.4244 40.427L69.2845 39.8064L69.1285 39.1858L68.9617 38.5542L68.7734 37.9172L68.5744 37.2801L68.3592 36.643L68.1332 36.0004L67.8911 35.3634L67.6329 34.7263L67.3693 34.0947L67.0895 33.4686L66.799 32.848L66.4978 32.2329L66.1857 31.6288L65.8629 31.0357L65.5348 30.448L65.1959 29.8824L64.8515 29.3222L64.4965 28.784L64.1414 28.2567L63.7756 27.7515L63.4044 27.2627L63.0278 26.7959L62.6512 26.3455L62.2692 25.9226L61.8819 25.5217L61.4999 25.1483L61.1126 24.8023L60.7306 24.4837L60.3433 24.1927L61.7151 22.2265ZM61.7151 22.2265L60.3433 24.1927C59.8107 23.8027 59.6869 23.0503 60.0689 22.5066C60.4455 21.9629 61.1825 21.8366 61.7151 22.2265Z" fill="white"/>
<path d="M10.7619 41.4977C11.1518 41.6868 11.312 42.1623 11.1198 42.5567C10.9328 42.9457 10.4629 43.1132 10.0783 42.9187L10.7619 41.4977ZM1.1272 36.7486L10.7619 41.4977L10.0783 42.9187L0.43824 38.1695L0.0430239 37.2024L1.1272 36.7486ZM0.43824 38.1695C0.0537054 37.9805 -0.111858 37.505 0.0804091 37.1106C0.267336 36.7162 0.737323 36.5541 1.1272 36.7486L0.43824 38.1695ZM14.5325 15.4235L13.443 16.5581L14.4898 16.596L13.8863 17.1254L13.2988 17.6603L12.7273 18.2114L12.1666 18.7679L11.6271 19.3352L11.0984 19.9133L10.591 20.5022L10.089 21.0965L9.60833 21.7017L9.13835 22.3176L8.67904 22.9389L8.23576 23.571L7.80315 24.214L7.38123 24.8623L6.97534 25.5161L6.58012 26.1806L6.19024 26.8506L5.81639 27.5313L5.45322 28.2175L5.10073 28.9145L4.75358 29.6114L4.42245 30.3192L4.09666 31.0324L3.78156 31.751L3.47179 32.4803L3.17271 33.2097L2.87897 33.9499L2.59591 34.6901L2.31819 35.4411L2.04581 36.1921L1.77877 36.9485L1.52242 37.7103L0.0430239 37.2024L0.304721 36.4298L0.571759 35.6572L0.849479 34.89L1.13254 34.1282L1.42094 33.3664L1.72002 32.6154L2.02979 31.8644L2.34489 31.1188L2.67068 30.3786L3.00715 29.6438L3.34896 28.9199L3.70679 28.1959L4.06996 27.4827L4.44381 26.7749L4.83369 26.0726L5.23425 25.3756L5.64549 24.684L6.06741 24.0033L6.50001 23.3333L6.95397 22.6688L7.41328 22.0096L7.88861 21.3613L8.37996 20.7183L8.88733 20.0916L9.40538 19.4649L9.93946 18.8544L10.4896 18.2492L11.0557 17.6549L11.6378 17.0714L12.236 16.4987L12.8502 15.9368L13.4857 15.3857L14.5325 15.4235ZM13.4857 15.3857C13.8169 15.1048 14.3082 15.148 14.5859 15.483C14.8636 15.8179 14.8209 16.315 14.4898 16.596L13.4857 15.3857ZM20.9575 23.9709L13.443 16.5581L14.5325 15.4235L22.0523 22.8363L20.9575 23.9709ZM22.0523 22.8363C22.3621 23.1442 22.3674 23.6413 22.063 23.9546C21.7639 24.268 21.2672 24.2734 20.9575 23.9709L22.0523 22.8363ZM70.429 40.4982L70.963 41.9894C70.5571 42.1352 70.1085 41.9245 69.9643 41.5139C69.8148 41.1033 70.0231 40.6495 70.429 40.4982ZM80.9503 36.6297L81.9597 37.1214L81.4843 38.1155L70.963 41.9894L70.429 40.4982L80.9503 36.6297ZM81.4843 38.1155L80.9503 36.6297C81.3562 36.4785 81.8048 36.6946 81.9543 37.1052C82.0985 37.5158 81.8902 37.9696 81.4843 38.1155ZM67.7746 15.2344L68.8321 15.1858L69.4676 15.7369L70.0818 16.2988L70.6746 16.8769L71.2514 17.4658L71.8122 18.0601L72.357 18.6707L72.8804 19.2866L73.3877 19.9133L73.8844 20.5509L74.3598 21.1938L74.8244 21.8529L75.273 22.5121L75.7056 23.182L76.1276 23.8628L76.5388 24.549L76.934 25.2459L77.3185 25.9429L77.6871 26.6561L78.0502 27.3692L78.4027 28.0878L78.7392 28.8172L79.0703 29.5466L79.3961 30.2868L79.7059 31.027L80.0103 31.7726L80.3094 32.5236L80.5978 33.28L80.8808 34.0418L81.1586 34.809L81.4309 35.5762L81.698 36.3488L81.9597 37.1214L80.4749 37.6293L80.2186 36.8621L79.9569 36.1003L79.6898 35.3439L79.4175 34.5929L79.1397 33.8473L78.8513 33.1071L78.5629 32.3723L78.2639 31.6375L77.9594 30.9135L77.6443 30.1949L77.3239 29.4818L76.9928 28.774L76.6509 28.077L76.3038 27.3855L75.9406 26.6993L75.5721 26.0239L75.1876 25.354L74.7977 24.6948L74.3918 24.0411L73.9752 23.3927L73.5426 22.7606L73.0993 22.1285L72.64 21.5126L72.1701 20.902L71.684 20.3023L71.182 19.7134L70.6639 19.1353L70.1299 18.568L69.5798 18.0061L69.0137 17.4604L68.4262 16.9201L67.8227 16.3961L68.8855 16.3474L67.7746 15.2344ZM68.8321 15.1858L67.8227 16.3961C67.4969 16.1151 67.4542 15.6126 67.7319 15.2777C68.0096 14.9481 68.5009 14.9049 68.8321 15.1858ZM61.5419 23.8628L60.431 22.7498L67.7746 15.2344L68.8855 16.3474L61.5419 23.8628ZM60.431 22.7498L61.5419 23.8628C61.2375 24.1708 60.7408 24.1762 60.4364 23.8682C60.1266 23.5602 60.1266 23.0578 60.431 22.7498Z" fill="white"/>
<path d="M64.5785 46.0389C65.0781 46.4645 65.1426 47.2229 64.7236 47.7249C64.2992 48.2323 63.5578 48.2978 63.0582 47.8722L64.5785 46.0389ZM52.6956 39.6059L54.0332 37.6307L54.4093 37.8926L54.7746 38.1546L55.1452 38.4219L55.5052 38.6838L55.8651 38.9457L56.2196 39.2076L56.5688 39.475L56.918 39.7369L57.2618 39.9988L57.6003 40.2607L57.9387 40.5226L58.2771 40.7899L58.6102 41.0518L58.9379 41.3137L59.2656 41.5756L59.5933 41.843L59.9156 42.1049L60.2379 42.3668L60.5549 42.6287L60.8718 42.8906L61.1888 43.158L61.5003 43.4199L61.8173 43.6818L62.1235 43.9437L62.4351 44.2056L62.7467 44.4675L63.0529 44.7294L63.3591 44.9913L63.6653 45.2532L63.9715 45.5151L64.2777 45.777L64.5785 46.0389L63.0582 47.8722L62.752 47.6103L62.4512 47.3484L62.145 47.0865L61.8388 46.8246L61.5326 46.5681L61.2264 46.3062L60.9202 46.0443L60.614 45.7879L60.3078 45.526L60.0015 45.2695L59.69 45.0076L59.3784 44.7512L59.0668 44.4893L58.7499 44.2328L58.4383 43.9709L58.1213 43.7145L57.799 43.4581L57.4767 43.1962L57.1544 42.9397L56.832 42.6833L56.5044 42.4268L56.1713 42.1704L55.8382 41.9139L55.4998 41.652L55.1613 41.3956L54.8175 41.1391L54.4737 40.8827L54.1245 40.6262L53.7754 40.3698L53.4154 40.1188L53.0609 39.8624L52.6956 39.6059ZM52.6956 39.6059C52.1584 39.2294 52.0241 38.4819 52.3894 37.9363C52.76 37.3907 53.496 37.2543 54.0332 37.6307L52.6956 39.6059ZM40.2915 31.5525L39.8994 29.1899L40.6891 29.3317L41.1242 29.5882L41.5593 29.8446L41.9945 30.1065L42.435 30.363L42.8701 30.6194L43.3053 30.8759L43.7404 31.1323L44.1755 31.3942L44.6053 31.6507L45.0404 31.9071L45.4702 32.1636L45.9 32.4255L46.3297 32.6819L46.7541 32.9438L47.1785 33.2002L47.6029 33.4567L48.0219 33.7186L48.4463 33.975L48.8599 34.2369L49.279 34.4988L49.6872 34.7553L50.1009 35.0172L50.5092 35.2791L50.9121 35.5355L51.315 35.7974L51.7125 36.0593L52.1047 36.3212L52.5022 36.5831L52.889 36.845L53.2758 37.1069L53.6572 37.3688L54.0332 37.6307L52.6956 39.6059L52.3249 39.3495L51.9542 39.093L51.5782 38.8366L51.2022 38.5856L50.8154 38.3291L50.4286 38.0727L50.0364 37.8163L49.6443 37.5598L49.2467 37.3034L48.8438 37.0469L48.4409 36.7905L48.038 36.534L47.6244 36.2776L47.2161 36.0211L46.8025 35.7702L46.3834 35.5137L45.9644 35.2573L45.5454 35.0008L45.121 34.7444L44.6966 34.4879L44.2669 34.2315L43.8425 33.975L43.4127 33.7186L42.9829 33.4621L42.5478 33.2057L42.118 32.9493L41.6829 32.6928L41.2478 32.4364L40.8126 32.1799L40.3775 31.918L39.937 31.6616L39.5019 31.4051L40.2915 31.5525ZM39.5019 31.4051C38.9378 31.0723 38.7444 30.3412 39.0721 29.7682C39.3998 29.1953 40.125 28.9989 40.6891 29.3317L39.5019 31.4051ZM36.8427 32.9274L35.4137 31.0177L35.5749 30.8922L35.7361 30.7777L35.8918 30.6685L36.0476 30.5649L36.2088 30.4612L36.3592 30.3684L36.515 30.2811L36.6654 30.1938L36.8212 30.112L36.9716 30.0356L37.122 29.9647L37.2671 29.8992L37.4121 29.8392L37.5626 29.7792L37.7022 29.7246L37.8473 29.67L37.9869 29.6264L38.1266 29.5773L38.2663 29.5391L38.4006 29.5009L38.5349 29.4627L38.6692 29.43L38.7981 29.3972L38.927 29.3699L39.056 29.3427L39.1795 29.3154L39.3031 29.2935L39.4266 29.2717L39.5448 29.2499L39.6684 29.2281L39.7812 29.2062L39.8994 29.1899L40.2915 31.5525L40.1787 31.5688L40.0659 31.5906L39.9585 31.607L39.851 31.6288L39.7436 31.6507L39.6362 31.6725L39.5287 31.6889L39.4266 31.7107L39.3246 31.738L39.2225 31.7598L39.1204 31.7871L39.0184 31.8143L38.9163 31.8416L38.8142 31.8744L38.7175 31.9016L38.6155 31.9398L38.5134 31.9726L38.4113 32.0162L38.3093 32.0544L38.2072 32.0981L38.0998 32.1472L37.9977 32.1963L37.8902 32.2508L37.7828 32.3054L37.67 32.3709L37.5572 32.4364L37.4444 32.5073L37.3262 32.5782L37.208 32.6601L37.0898 32.7419L36.9663 32.8292L36.8427 32.9274ZM36.8427 32.9274C36.3216 33.3257 35.5803 33.2221 35.1881 32.6928C34.796 32.169 34.8927 31.416 35.4137 31.0177L36.8427 32.9274ZM31.7178 37.6635L30.2512 35.7811L30.4016 35.661L30.5574 35.5301L30.7132 35.3937L30.869 35.2573L31.0302 35.1154L31.1859 34.9735L31.3471 34.8208L31.5083 34.6734L31.6694 34.5207L31.8306 34.3624L31.9971 34.2042L32.1583 34.046L32.3248 33.8877L32.486 33.724L32.6525 33.5604L32.8137 33.4021L32.9802 33.2384L33.1414 33.0747L33.3079 32.9165L33.4691 32.7583L33.6356 32.5946L33.7968 32.4418L33.9579 32.2836L34.1244 32.1308L34.2856 31.9835L34.4468 31.8307L34.6079 31.6889L34.7691 31.547L34.9303 31.4051L35.0914 31.2742L35.2526 31.1432L35.4137 31.0177L36.8427 32.9274L36.7138 33.0256L36.5795 33.1348L36.4452 33.2494L36.3055 33.3694L36.1658 33.4894L36.0208 33.6204L35.8704 33.7568L35.7199 33.8932L35.5695 34.0351L35.4191 34.1824L35.2633 34.3351L35.1022 34.4879L34.9464 34.6407L34.7852 34.7989L34.624 34.9572L34.4629 35.1209L34.2964 35.2845L34.1298 35.4428L33.9633 35.6119L33.7968 35.7756L33.6249 35.9393L33.4583 36.103L33.2864 36.2667L33.1145 36.4304L32.9426 36.5886L32.7707 36.7468L32.5988 36.9051L32.4215 37.0633L32.2496 37.2161L32.0723 37.3688L31.8951 37.5162L31.7178 37.6635ZM31.7178 37.6635C31.2074 38.0727 30.4661 37.9854 30.0632 37.4671C29.6549 36.9487 29.7409 36.1957 30.2512 35.7811L31.7178 37.6635ZM25.7441 39.4259L26.5176 37.1615L26.6036 37.1888L26.6896 37.2106L26.7701 37.227L26.8561 37.2433L26.9474 37.2543L27.0334 37.2597L27.1247 37.2652H27.2214L27.3127 37.2597L27.4148 37.2488L27.5168 37.2324L27.6189 37.2161L27.7264 37.1942L27.8392 37.167L27.952 37.1342L28.0702 37.096L28.1883 37.0524L28.3065 37.0033L28.4355 36.9487L28.559 36.8887L28.6879 36.8287L28.8222 36.7577L28.9566 36.6814L29.0962 36.605L29.2305 36.5177L29.3702 36.4304L29.5152 36.3321L29.6603 36.2339L29.8053 36.1303L29.9504 36.0157L30.1008 35.9011L30.2512 35.7811L31.7178 37.6635L31.5405 37.7999L31.3632 37.9418L31.1859 38.0727L31.0087 38.1982L30.8314 38.3237L30.6487 38.4437L30.4715 38.5583L30.2888 38.6674L30.1115 38.7711L29.9289 38.8748L29.7462 38.9675L29.5636 39.0603L29.3809 39.1421L29.1983 39.224L29.0103 39.2949L28.8276 39.3658L28.6396 39.4259L28.4516 39.4804L28.2582 39.5295L28.0702 39.5677L27.8768 39.6059L27.6834 39.6332L27.49 39.6496L27.2966 39.6605H27.0978L26.9044 39.655L26.711 39.6387L26.5123 39.6168L26.3189 39.5841L26.1255 39.5404L25.9375 39.4859L25.7441 39.4259ZM25.7441 39.4259C25.1317 39.2076 24.804 38.5256 25.0188 37.8981C25.2337 37.2761 25.9052 36.9433 26.5176 37.1615L25.7441 39.4259ZM23.0205 33.4185L25.266 34.1442L25.223 34.3079L25.1854 34.4606L25.1531 34.6134L25.1317 34.7607L25.1209 34.8972L25.1155 35.0336V35.1645L25.1209 35.29L25.1317 35.41L25.1531 35.5246L25.1746 35.6392L25.2069 35.7483L25.2391 35.852L25.2767 35.9502L25.3197 36.0484L25.3627 36.1466L25.4164 36.2394L25.4701 36.3267L25.5292 36.4085L25.5883 36.4904L25.6527 36.5668L25.7226 36.6432L25.7978 36.7141L25.8676 36.7796L25.9482 36.8396L26.0234 36.8996L26.104 36.9542L26.1846 37.0033L26.2705 37.0524L26.3511 37.0906L26.4371 37.1288L26.5176 37.1615L25.7441 39.4259L25.5561 39.3549L25.3734 39.2731L25.1908 39.1858L25.0135 39.0876L24.8416 38.9785L24.6697 38.8639L24.5031 38.7438L24.3473 38.6074L24.1916 38.471L24.0411 38.3237L23.8961 38.1655L23.7564 38.0018L23.6275 37.8326L23.5039 37.6526L23.3857 37.4616L23.2783 37.2706L23.1816 37.0687L23.0903 36.8614L23.0097 36.6432L22.9399 36.4249L22.8808 36.1957L22.8324 35.9611L22.7948 35.7265L22.768 35.481L22.7572 35.2354L22.7518 34.9844L22.768 34.728L22.7895 34.4716L22.8271 34.2097L22.8754 33.9478L22.9399 33.6859L23.0205 33.4185ZM23.0205 33.4185C23.2138 32.7856 23.88 32.4364 24.5031 32.6382C25.1209 32.8401 25.4647 33.5113 25.266 34.1442L23.0205 33.4185ZM28.457 25.8561L30.176 27.493L30.0095 27.673L29.8376 27.8585L29.6657 28.0495L29.483 28.2459L29.3057 28.4424L29.1177 28.6443L28.9351 28.8516L28.747 29.0644L28.559 29.2772L28.371 29.49L28.183 29.7082L27.995 29.9265L27.8069 30.1502L27.6243 30.3739L27.4416 30.5976L27.2644 30.8213L27.0925 31.045L26.9205 31.2742L26.754 31.4979L26.5929 31.7216L26.4371 31.9453L26.2866 32.1636L26.147 32.3818L26.0127 32.5946L25.8837 32.8074L25.7709 33.0147L25.6581 33.2221L25.5614 33.4185L25.4701 33.6095L25.3949 33.795L25.3251 33.975L25.266 34.1442L23.0205 33.4185L23.1064 33.1511L23.2085 32.8892L23.3213 32.6273L23.4395 32.3654L23.5684 32.1035L23.7081 31.8471L23.8531 31.5906L24.0035 31.3342L24.1647 31.0777L24.3312 30.8268L24.5031 30.5703L24.675 30.3193L24.8577 30.0683L25.0403 29.8228L25.2284 29.5718L25.4218 29.3263L25.6151 29.0862L25.8085 28.8407L26.0073 28.6061L26.2061 28.366L26.4048 28.1368L26.5982 27.9077L26.797 27.6785L26.9958 27.4602L27.1892 27.242L27.3825 27.0237L27.5706 26.8164L27.7532 26.6145L27.9359 26.4126L28.1131 26.2217L28.2904 26.0361L28.457 25.8561ZM28.457 25.8561C28.9028 25.3705 29.6495 25.3487 30.1223 25.8015C30.6004 26.2544 30.6219 27.0128 30.176 27.493L28.457 25.8561ZM33.829 22.1185L34.4468 24.432L34.2588 24.4811L34.0815 24.5357L33.9096 24.5957L33.7484 24.6503L33.5926 24.7103L33.4476 24.7648L33.3079 24.8248L33.1736 24.8903L33.0447 24.9503L32.9211 25.0158L32.8029 25.0813L32.6901 25.1522L32.5719 25.2232L32.4645 25.2995L32.3517 25.3759L32.2389 25.4578L32.1314 25.5451L32.0186 25.6324L31.9112 25.7306L31.7984 25.8288L31.6802 25.9325L31.562 26.0471L31.4438 26.1616L31.3202 26.2817L31.1913 26.4126L31.0624 26.549L30.9281 26.6909L30.7884 26.8382L30.6434 26.991L30.493 27.1547L30.3372 27.3184L30.176 27.493L28.457 25.8561L28.6181 25.6815L28.7739 25.5069L28.9297 25.3432L29.0801 25.185L29.2252 25.0267L29.3702 24.874L29.5152 24.7266L29.6603 24.5793L29.8 24.4375L29.945 24.301L30.0901 24.1646L30.2297 24.0337L30.3748 23.9027L30.5252 23.7772L30.6756 23.6572L30.826 23.5372L30.9818 23.4226L31.143 23.3135L31.3041 23.2043L31.4707 23.1007L31.6372 22.997L31.8145 22.8988L31.9918 22.806L32.1744 22.7187L32.3624 22.6314L32.5558 22.5496L32.7546 22.4677L32.9533 22.3913L33.1629 22.3204L33.3777 22.2495L33.598 22.184L33.829 22.1185ZM33.829 22.1185C34.4575 21.9439 35.1075 22.3204 35.2794 22.9588C35.446 23.5972 35.0753 24.2574 34.4468 24.432L33.829 22.1185ZM42.9346 21.0055L42.9829 23.4062L42.7251 23.4117L42.4618 23.4171L42.1933 23.428L41.9193 23.439L41.6399 23.4553L41.3606 23.4717L41.0759 23.4881L40.7911 23.5044L40.5011 23.5263L40.211 23.5481L39.9209 23.5754L39.6308 23.5972L39.3407 23.6245L39.0506 23.6572L38.7605 23.6845L38.4758 23.7172L38.1857 23.75L37.901 23.7882L37.6216 23.8264L37.3423 23.8645L37.0683 23.9027L36.7997 23.9464L36.5365 23.99L36.2786 24.0337L36.0208 24.0773L35.7737 24.1264L35.5319 24.1701L35.3009 24.2192L35.0753 24.2738L34.855 24.3229L34.6455 24.3774L34.4468 24.432L33.829 22.1185L34.0654 22.0531L34.3017 21.993L34.5542 21.933L34.8067 21.8785L35.0646 21.8239L35.3278 21.7693L35.6018 21.7202L35.8757 21.6711L36.1551 21.622L36.4398 21.5729L36.7245 21.5293L37.02 21.4911L37.3101 21.4474L37.6109 21.4092L37.9064 21.371L38.2072 21.3383L38.508 21.3001L38.8142 21.2728L39.1151 21.2401L39.4213 21.2128L39.7221 21.1855L40.0283 21.1582L40.3292 21.1364L40.63 21.1146L40.9254 21.0928L41.2263 21.0764L41.5164 21.06L41.8065 21.0436L42.0965 21.0327L42.3813 21.0218L42.6606 21.0164L42.9346 21.0055ZM42.9346 21.0055C43.5846 20.9945 44.1272 21.5183 44.1379 22.1786C44.154 22.8388 43.6383 23.3899 42.9829 23.4062L42.9346 21.0055ZM49.7034 21.5729L49.2414 23.9246L49.0802 23.8918L48.919 23.8645L48.7579 23.8318L48.5967 23.8045L48.4302 23.7718L48.2637 23.7445L48.0971 23.7172L47.9252 23.6899L47.7587 23.6681L47.5868 23.6408L47.4095 23.619L47.2322 23.5917L47.0549 23.5754L46.8723 23.5535L46.6896 23.5317L46.5016 23.5153L46.3082 23.499L46.1148 23.4826L45.9214 23.4662L45.7173 23.4553L45.5132 23.439L45.309 23.428L45.0941 23.4226L44.8793 23.4117L44.659 23.4062L44.4334 23.4008L44.2078 23.3953H43.9714H43.735H43.4879L43.2408 23.4008L42.9829 23.4062L42.9346 21.0055L43.2032 21H43.4664H43.7296H43.9821H44.2346L44.4764 21.0055L44.7181 21.0109L44.9598 21.0164L45.1908 21.0273L45.4218 21.0327L45.6475 21.0491L45.8677 21.06L46.088 21.0764L46.2975 21.0928L46.5124 21.1091L46.7165 21.1255L46.926 21.1473L47.1248 21.1691L47.3235 21.191L47.5223 21.2128L47.7157 21.2401L47.9037 21.2674L48.0917 21.2946L48.2798 21.3219L48.4624 21.3492L48.6451 21.3765L48.8277 21.4092L49.005 21.442L49.1823 21.4747L49.3542 21.5074L49.5315 21.5402L49.7034 21.5729ZM49.7034 21.5729C50.3426 21.7039 50.7563 22.3313 50.6273 22.9806C50.5038 23.6299 49.8806 24.0555 49.2414 23.9246L49.7034 21.5729ZM54.796 22.4295L54.7208 24.8248L54.5274 24.8194L54.3394 24.8085L54.1514 24.7976L53.9634 24.7812L53.7807 24.7648L53.5981 24.7485L53.4154 24.7266L53.2382 24.7048L53.0609 24.683L52.8836 24.6557L52.7063 24.6284L52.5344 24.6011L52.3625 24.5684L52.1906 24.5411L52.0187 24.5084L51.8522 24.4756L51.6856 24.4429L51.5191 24.4102L51.3526 24.3774L51.186 24.3392L51.0195 24.3065L50.8583 24.2683L50.6972 24.2356L50.5307 24.2028L50.3695 24.1646L50.2083 24.1319L50.0472 24.0937L49.886 24.061L49.7248 24.0228L49.5637 23.99L49.4025 23.9573L49.2414 23.9246L49.7034 21.5729L49.8699 21.6056L50.0418 21.6438L50.2083 21.6766L50.3749 21.7148L50.5414 21.7475L50.7026 21.7857L50.8691 21.8184L51.0302 21.8566L51.1914 21.8894L51.3472 21.9276L51.5084 21.9603L51.6641 21.993L51.8253 22.0258L51.9811 22.0585L52.1369 22.0913L52.2927 22.124L52.4485 22.1513L52.6043 22.1786L52.76 22.2058L52.9158 22.2331L53.0716 22.2604L53.222 22.2822L53.3778 22.304L53.5336 22.3259L53.6894 22.3477L53.8452 22.3641L54.001 22.3804L54.1621 22.3913L54.3179 22.4077L54.4791 22.4186L54.6349 22.4241L54.796 22.4295ZM54.796 22.4295C55.4461 22.4514 55.9618 23.0079 55.9403 23.6681C55.9188 24.3283 55.3709 24.8467 54.7208 24.8248L54.796 22.4295ZM59.6792 22.004L60.0392 24.372L59.9317 24.3883L59.8243 24.4047L59.7061 24.4265L59.5825 24.4429L59.4536 24.4647L59.3193 24.4811L59.1796 24.5029L59.04 24.5248L58.8895 24.5466L58.7337 24.5684L58.578 24.5848L58.4168 24.6066L58.2503 24.6284L58.0837 24.6503L57.9118 24.6666L57.7346 24.6884L57.5573 24.7048L57.38 24.7212L57.1973 24.743L57.0147 24.7539L56.8267 24.7703L56.6387 24.7867L56.4506 24.7976L56.2626 24.8085L56.0692 24.8139L55.8758 24.8248L55.6824 24.8303L55.489 24.8358H55.301H55.1076L54.9142 24.8303L54.7208 24.8248L54.796 22.4295L54.9572 22.435H55.1237L55.2903 22.4405L55.4568 22.435H55.6287L55.7952 22.4295L55.9672 22.4186L56.1391 22.4132L56.311 22.4023L56.4829 22.3913L56.6548 22.3804L56.8213 22.3695L56.9932 22.3532L57.1597 22.3368L57.3263 22.3204L57.4928 22.304L57.654 22.2877L57.8151 22.2659L57.9709 22.2495L58.1267 22.2277L58.2771 22.2113L58.4275 22.1895L58.5726 22.1676L58.7123 22.1513L58.8466 22.1294L58.9809 22.1131L59.1098 22.0913L59.2333 22.0749L59.3515 22.0531L59.4697 22.0367L59.5772 22.0203L59.6792 22.004ZM59.6792 22.004C60.3239 21.9057 60.9255 22.3532 61.0276 23.0079C61.1243 23.6627 60.6838 24.2738 60.0392 24.372L59.6792 22.004ZM60.9309 23.0243V24.2192L61.0598 24.2137L61.1243 24.2028L61.1082 24.2083H61.1028H61.0921L61.0813 24.2137H61.0598H61.0491L61.0383 24.2192H61.0169L61.0007 24.2247L60.9739 24.2301H60.947L60.9202 24.2356L60.8826 24.241L60.8503 24.2465L60.8074 24.2519L60.759 24.2629L60.7107 24.2683L60.6569 24.2792L60.5978 24.2847L60.5334 24.2956L60.4635 24.3065L60.3937 24.3174L60.3131 24.3338L60.2272 24.3447L60.1359 24.3611L60.0392 24.372L59.6792 22.004L59.7759 21.9876L59.8672 21.9767L59.9532 21.9603L60.0338 21.9494L60.109 21.9385L60.1788 21.9276L60.2379 21.9167L60.297 21.9057L60.3507 21.9003L60.4044 21.8894L60.4474 21.8839L60.4904 21.8785L60.528 21.873L60.5602 21.8675L60.5925 21.8621L60.6193 21.8566H60.6408L60.6623 21.8512H60.6784L60.6945 21.8457H60.7107H60.716L60.7321 21.8403H60.7375L60.802 21.8294L60.9309 21.8239V23.0243ZM60.7536 21.8348C61.3983 21.7366 61.9999 22.184 62.0966 22.8388C62.1933 23.4935 61.7528 24.1046 61.1082 24.2083L60.7536 21.8348ZM28.1078 45.4005L29.7785 43.709L28.414 45.6242L28.1078 45.4005ZM29.7785 43.709C30.2405 44.1728 30.2405 44.9367 29.7785 45.4005C29.3165 45.8697 28.5698 45.8697 28.1078 45.4005L29.7785 43.709ZM30.4339 50.4967L28.5859 49.0071L28.6665 48.9034L28.7363 48.7943L28.8061 48.6797L28.8706 48.5597L28.9297 48.4396L28.978 48.3141L29.0264 48.1832L29.0694 48.0522L29.107 47.9158L29.1392 47.7849L29.1607 47.6485L29.1768 47.5121L29.1929 47.3811L29.1983 47.2447V47.1192L29.1929 46.9883L29.1768 46.8628L29.1607 46.7427L29.1338 46.6282L29.107 46.519L29.0747 46.4154L29.0371 46.3171L28.9942 46.2244L28.9458 46.1371L28.8975 46.0552L28.8437 45.9789L28.7846 45.9079L28.7202 45.8424L28.6557 45.7824L28.5805 45.7279L28.4999 45.6733L28.414 45.6242L29.4723 43.4853L29.7086 43.6163L29.9396 43.7636L30.1491 43.9273L30.3479 44.1074L30.5306 44.2929L30.6971 44.4947L30.8475 44.7021L30.9818 44.9203L31.1 45.144L31.2074 45.3732L31.2934 45.6024L31.3686 45.8424L31.4331 46.0771L31.4814 46.3226L31.519 46.5627L31.5459 46.8082L31.5566 47.0537V47.2938L31.5459 47.5394L31.5244 47.7849L31.4922 48.025L31.4492 48.265L31.3955 48.5051L31.331 48.7397L31.2558 48.9744L31.1698 49.209L31.0731 49.4327L30.9657 49.6564L30.8529 49.8746L30.724 50.0874L30.5843 50.3002L30.4339 50.4967ZM30.4339 50.4967C30.0256 51.015 29.2842 51.1023 28.7739 50.6876C28.2636 50.2784 28.183 49.5254 28.5859 49.0071L30.4339 50.4967ZM21.7312 57.7426L28.5859 49.0071L30.4339 50.4967L23.5791 59.2376L21.7312 57.7426ZM23.5791 59.2376C23.1709 59.7505 22.4295 59.8378 21.9192 59.4286C21.4142 59.0139 21.3283 58.2609 21.7312 57.7426L23.5791 59.2376ZM16.8319 60.0233L18.2501 58.1082L18.336 58.1682L18.4274 58.2282L18.5241 58.2882L18.6261 58.3373L18.7336 58.3864L18.841 58.4301L18.9592 58.4683L19.072 58.501L19.1902 58.5338L19.3137 58.5556L19.4373 58.5774L19.5609 58.5883L19.6898 58.5992H19.8133H19.9423L20.0658 58.5883L20.1948 58.5774L20.3183 58.5556L20.4365 58.5338L20.5601 58.501L20.6729 58.4683L20.7911 58.4246L20.8985 58.381L21.0113 58.3319L21.1134 58.2719L21.2154 58.2118L21.3121 58.1464L21.4035 58.0754L21.4894 57.999L21.5754 57.9227L21.656 57.8354L21.7312 57.7426L23.5791 59.2376L23.418 59.434L23.2407 59.6196L23.0634 59.7942L22.87 59.9524L22.6766 60.0997L22.4725 60.2416L22.2684 60.3671L22.0589 60.4762L21.8386 60.5799L21.6237 60.6672L21.4035 60.749L21.1778 60.8145L20.9522 60.8745L20.7266 60.9182L20.4956 60.9564L20.27 60.9782L20.039 60.9945L19.8133 61L19.5823 60.9945L19.3567 60.9782L19.1311 60.9509L18.9055 60.9182L18.6852 60.8745L18.465 60.8199L18.2447 60.7545L18.0352 60.6781L17.8203 60.5962L17.6108 60.5035L17.412 60.3998L17.2133 60.2852L17.0199 60.1597L16.8319 60.0233ZM16.8319 60.0233C16.3108 59.625 16.2033 58.8721 16.5955 58.3428C16.9877 57.8135 17.729 57.7099 18.2501 58.1082L16.8319 60.0233ZM16.0475 53.1211L17.8955 54.6161L17.8257 54.7035L17.7612 54.8017L17.7021 54.9053L17.643 55.009L17.5947 55.1181L17.5463 55.2273L17.5034 55.3418L17.4658 55.4564L17.4335 55.5765L17.412 55.6965L17.3906 55.822L17.3744 55.942L17.3637 56.0675L17.3583 56.193V56.3131L17.3637 56.4386L17.3798 56.5586L17.3959 56.6786L17.4174 56.7987L17.4496 56.9132L17.4819 57.0278L17.5249 57.1424L17.5678 57.2515L17.6216 57.3607L17.6806 57.4643L17.7397 57.5625L17.8096 57.6608L17.8848 57.759L17.9654 57.8517L18.0513 57.939L18.148 58.0263L18.2501 58.1082L16.8319 60.0233L16.6224 59.8542L16.429 59.6796L16.2517 59.4941L16.0798 59.3031L15.924 59.1012L15.7789 58.8993L15.65 58.6865L15.5318 58.4683L15.4244 58.2446L15.3277 58.0209L15.2471 57.7917L15.1773 57.5625L15.1182 57.3279L15.0698 57.0988L15.0376 56.8641L15.0107 56.6241L15 56.3894V56.1548L15.0054 55.9202L15.0269 55.691L15.0537 55.4564L15.0967 55.2273L15.145 55.0035L15.2041 54.7744L15.274 54.5561L15.3546 54.3379L15.4459 54.1196L15.5479 53.9123L15.6554 53.705L15.7789 53.5031L15.9079 53.3066L16.0475 53.1211ZM16.0475 53.1211C16.4558 52.6028 17.1972 52.5155 17.7075 52.9302C18.2179 53.3394 18.3038 54.0978 17.8955 54.6161L16.0475 53.1211ZM24.7502 45.8752L17.8955 54.6161L16.0475 53.1211L22.9023 44.3856L24.7502 45.8752ZM22.9023 44.3856C23.3105 43.8673 24.0519 43.78 24.5622 44.1947C25.0726 44.6039 25.1531 45.3623 24.7502 45.8752L22.9023 44.3856ZM29.7785 43.709L28.1078 45.4005L28.2045 45.4932L28.1078 45.4114L28.0003 45.3405L27.8983 45.275L27.7908 45.215L27.678 45.1659L27.5706 45.1168L27.4578 45.0731L27.3396 45.0404L27.2268 45.0076L27.1086 44.9858L26.9904 44.964L26.8722 44.9531L26.754 44.9476H26.6358L26.5176 44.9531L26.3941 44.9585L26.2759 44.9749L26.1631 44.9967L26.0449 45.024L25.9321 45.0567L25.8193 45.0949L25.7065 45.144L25.599 45.1932L25.4916 45.2477L25.3895 45.3077L25.2874 45.3732L25.1908 45.4441L25.0941 45.5205L25.0027 45.6024L24.9168 45.6842L24.8308 45.777L24.7502 45.8752L22.9023 44.3856L23.0634 44.1892L23.23 44.0091L23.4019 43.84L23.5845 43.6763L23.7725 43.5235L23.9659 43.3871L24.1701 43.2562L24.3742 43.1361L24.5837 43.027L24.7932 42.9288L25.0135 42.847L25.2337 42.7706L25.454 42.7051L25.6796 42.6505L25.9106 42.6069L26.1362 42.5796L26.3672 42.5578L26.5982 42.5469L26.8292 42.5523L27.0602 42.5632L27.2912 42.5905L27.5222 42.6232L27.7532 42.6723L27.9788 42.7324L28.2045 42.8033L28.4247 42.8851L28.645 42.9779L28.8652 43.0816L29.0747 43.2016L29.2842 43.3271L29.483 43.469L29.6818 43.6217L29.7785 43.709ZM29.6818 43.6217C30.1921 44.031 30.2727 44.7894 29.8644 45.3023C29.4562 45.8206 28.7148 45.9025 28.2045 45.4932L29.6818 43.6217Z" fill="white"/>
<path d="M34.2381 49.0998C34.75 49.5241 34.8308 50.2946 34.4213 50.8194C34.0172 51.3498 33.2683 51.4335 32.7619 51.0148L34.2381 49.0998ZM34.9978 56.1343L33.139 54.6158L33.2144 54.5097L33.2845 54.4036L33.3438 54.2975L33.3976 54.1915L33.4461 54.0798L33.4892 53.9737L33.5269 53.8621L33.5593 53.7504L33.5808 53.6388L33.6024 53.5215L33.6185 53.4099L33.6293 53.2926V53.1754V53.0525L33.6239 52.9353L33.6078 52.8125L33.5916 52.6897L33.5647 52.5724L33.5377 52.4496L33.5054 52.3268L33.4623 52.2039L33.4192 52.0811L33.3653 51.9583L33.306 51.8355L33.2468 51.7126L33.1767 51.5954L33.1067 51.4782L33.0259 51.3609L32.945 51.2493L32.8534 51.1376L32.7619 51.0315L32.6649 50.9255L34.3351 49.1892L34.4968 49.3622L34.653 49.5409L34.7985 49.7251L34.9386 49.9149L35.0679 50.1103L35.1918 50.3113L35.3103 50.5123L35.4181 50.7189L35.5151 50.931L35.6067 51.1432L35.6875 51.3609L35.7575 51.5842L35.8222 51.8076L35.8761 52.0309L35.9192 52.2598L35.9569 52.4943L35.9784 52.7232L35.9946 52.9576L36 53.1921L35.9892 53.4322L35.9731 53.6667L35.9407 53.9011L35.903 54.1356L35.8491 54.3701L35.7845 54.599L35.7091 54.8335L35.6175 55.0568L35.5205 55.2801L35.4073 55.5034L35.2834 55.7156L35.1433 55.9278L34.9978 56.1343ZM34.9978 56.1343C34.5937 56.6647 33.8502 56.754 33.333 56.3353C32.8211 55.9166 32.7349 55.1461 33.139 54.6158L34.9978 56.1343ZM27.778 61.667L33.139 54.6158L34.9978 56.1343L29.6369 63.1855L27.778 61.667ZM29.6369 63.1855C29.2328 63.7159 28.4892 63.8108 27.972 63.3921C27.4601 62.9734 27.3739 62.203 27.778 61.667L29.6369 63.1855ZM22.9343 64.0509L24.2112 61.9852L24.3351 62.0634L24.4537 62.1304L24.5776 62.1974L24.7015 62.2588L24.8308 62.3146L24.9547 62.3593L25.0841 62.4039L25.2134 62.443L25.3373 62.4709L25.4666 62.4988L25.5905 62.5212L25.7144 62.5324L25.8384 62.5435H25.9623H26.0862L26.2047 62.5324L26.3179 62.5212L26.4364 62.5044L26.5442 62.4765L26.6573 62.4486L26.7651 62.4151L26.8675 62.376L26.9698 62.3314L27.0722 62.2811L27.1692 62.2253L27.2608 62.1639L27.3524 62.0969L27.444 62.0243L27.5302 61.9461L27.6164 61.8624L27.6972 61.7675L27.778 61.667L29.6369 63.1855L29.4752 63.3865L29.3082 63.5708L29.1358 63.7494L28.9526 63.9113L28.764 64.0677L28.57 64.2072L28.3707 64.3356L28.1606 64.4529L27.9558 64.5589L27.7403 64.6539L27.5248 64.7376L27.3039 64.8102L27.083 64.866L26.8621 64.9163L26.6358 64.9497L26.4095 64.9777L26.1832 64.9944L25.9569 65L25.7306 64.9944L25.5043 64.9777L25.2834 64.9497L25.0571 64.9163L24.8362 64.8716L24.6153 64.8158L24.3944 64.7488L24.1789 64.6762L23.9634 64.5924L23.7532 64.5031L23.5431 64.4026L23.333 64.291L23.1336 64.1737L22.9343 64.0509ZM22.9343 64.0509C22.3847 63.6824 22.2231 62.9232 22.5787 62.3537C22.9289 61.7842 23.6616 61.6167 24.2112 61.9852L22.9343 64.0509ZM22.0776 56.9383L23.9364 58.4568L23.8664 58.5517L23.8017 58.6522L23.7371 58.7583L23.6778 58.87L23.6239 58.9872L23.5754 59.1044L23.5323 59.2273L23.4892 59.3557L23.4569 59.4841L23.4246 59.6125L23.403 59.7465L23.3869 59.8749L23.3707 60.0089L23.3653 60.1373V60.2713L23.3707 60.3997L23.3815 60.5225L23.3976 60.6453L23.4192 60.7681L23.4461 60.8854L23.4784 60.997L23.5162 61.1087L23.5647 61.2148L23.6131 61.3153L23.667 61.4102L23.7263 61.5051L23.7909 61.5944L23.861 61.6782L23.9364 61.7619L24.0226 61.8401L24.1142 61.9126L24.2112 61.9852L22.9343 64.0509L22.708 63.889L22.4978 63.7159L22.2985 63.5317L22.1153 63.3363L21.9483 63.1353L21.792 62.9232L21.6519 62.6998L21.528 62.4765L21.4149 62.2476L21.3179 62.0131L21.2317 61.7731L21.1616 61.533L21.1078 61.2874L21.0593 61.0473L21.0269 60.8016L21.0054 60.556L21 60.3103V60.0703L21.0108 59.8246L21.0323 59.5846L21.07 59.3445L21.1131 59.1044L21.1616 58.87L21.2263 58.6411L21.3017 58.4121L21.3825 58.1888L21.4741 57.9655L21.5765 57.7478L21.6843 57.5412L21.8028 57.3346L21.9375 57.1337L22.0776 56.9383ZM22.0776 56.9383C22.4817 56.4079 23.2252 56.3186 23.7371 56.7373C24.2489 57.156 24.3405 57.9264 23.9364 58.4568L22.0776 56.9383ZM29.2974 51.4056L23.9364 58.4568L22.0776 56.9383L27.4386 49.887L29.2974 51.4056ZM27.4386 49.887C27.8427 49.3511 28.5862 49.2617 29.0981 49.6805C29.6153 50.0992 29.7015 50.8696 29.2974 51.4056L27.4386 49.887ZM34.3351 49.1892L32.6649 50.9255L32.7619 51.0148L32.6595 50.931L32.5571 50.8585L32.4494 50.7915L32.3416 50.7301L32.2338 50.6798L32.1207 50.6296L32.0075 50.5849L31.889 50.5514L31.7759 50.5179L31.6573 50.4956L31.5388 50.4732L31.4203 50.4621L31.2963 50.4565L31.1778 50.4509L31.0593 50.4565L30.9407 50.4677L30.8222 50.4844L30.7037 50.5067L30.5905 50.5346L30.472 50.5681L30.3588 50.6072L30.2511 50.6519L30.1433 50.7021L30.0356 50.758L29.9332 50.8194L29.8308 50.8864L29.7338 50.9589L29.6422 51.0371L29.5506 51.1209L29.4591 51.2102L29.3782 51.3051L29.2974 51.4056L27.4386 49.887L27.5948 49.686L27.7619 49.5018L27.9397 49.3232L28.1228 49.1557L28.3114 48.9993L28.5054 48.8542L28.7047 48.7258L28.9095 48.603L29.1196 48.4913L29.3351 48.3908L29.5506 48.3015L29.7716 48.2233L29.9978 48.1619L30.2241 48.1061L30.4504 48.0614L30.6821 48.0279L30.9138 48.0112L31.1455 48L31.3772 48.0056L31.6088 48.0168L31.8405 48.0447L32.0722 48.0782L32.3039 48.1284L32.5302 48.1898L32.7565 48.2624L32.9828 48.3461L33.2037 48.4411L33.4192 48.5471L33.6293 48.67L33.8394 48.7984L34.0442 48.9435L34.2381 49.0998L34.3351 49.1892ZM34.2381 49.0998C34.75 49.5241 34.8308 50.2946 34.4213 50.8194C34.0172 51.3498 33.2683 51.4335 32.7619 51.0148L34.2381 49.0998Z" fill="white"/>
<path d="M37.2158 56.9636C37.7202 57.3762 37.7999 58.1253 37.3963 58.641C36.9927 59.1568 36.2599 59.2382 35.7555 58.8256L37.2158 56.9636ZM37.9592 63.8145L36.1378 62.3216L36.2122 62.2185L36.2812 62.1154L36.3449 62.0122L36.4033 61.9036L36.4564 61.7896L36.4989 61.6811L36.5414 61.5671L36.5732 61.4476L36.6051 61.3336L36.6263 61.2142L36.6476 61.0948L36.6582 60.9753L36.6635 60.8559V60.7365L36.6582 60.6171L36.6529 60.4976L36.637 60.3782L36.6157 60.2588L36.5892 60.1393L36.5573 60.0253L36.5148 59.9113L36.4724 59.7973L36.4246 59.6888L36.3715 59.5802L36.313 59.477L36.2493 59.3739L36.1803 59.2762L36.1059 59.1785L36.0263 59.0862L35.9413 58.9939L35.8511 58.9125L35.7555 58.8256L37.2158 56.9636L37.4016 57.1264L37.5769 57.2947L37.7468 57.4739L37.9008 57.653L38.0495 57.843L38.1875 58.0439L38.3097 58.2447L38.4265 58.451L38.5327 58.6627L38.6283 58.8799L38.7079 59.097L38.7823 59.3196L38.846 59.5422L38.8991 59.7702L38.9416 60.0036L38.9681 60.2316L38.9894 60.4651L39 60.6985L38.9947 60.9319L38.9841 61.1654L38.9575 61.3988L38.9257 61.6322L38.8779 61.8656L38.8195 62.0936L38.7557 62.3216L38.6761 62.5442L38.5805 62.7668L38.4796 62.9839L38.3681 63.2011L38.2406 63.4128L38.1079 63.6137L37.9592 63.8145ZM37.9592 63.8145C37.5556 64.3248 36.8228 64.4117 36.3184 63.9991C35.8139 63.5865 35.7342 62.8374 36.1378 62.3216L37.9592 63.8145ZM34.2846 64.6831L36.1378 62.3216L37.9592 63.8145L36.1059 66.176L34.2846 64.6831ZM36.1059 66.176C35.7024 66.6917 34.9696 66.7731 34.4704 66.3606C33.9659 65.948 33.8863 65.1988 34.2846 64.6831L36.1059 66.176ZM29.4098 66.936L30.8701 65.074L30.9657 65.15L31.0719 65.2205L31.1728 65.2857L31.279 65.3454L31.3852 65.3943L31.4967 65.4431L31.6082 65.4865L31.7197 65.5191L31.8366 65.5517L31.9534 65.5734L32.0702 65.5897L32.187 65.606L32.3039 65.6114H32.4207L32.5375 65.606L32.6543 65.5951L32.7711 65.5788L32.888 65.5571L32.9995 65.53L33.1163 65.4974L33.2278 65.4594L33.334 65.416L33.4455 65.3671L33.5464 65.3128L33.6526 65.2531L33.7535 65.188L33.8491 65.1174L33.9447 65.0414L34.035 64.96L34.1199 64.8731L34.2049 64.7808L34.2846 64.6831L36.1059 66.176L35.952 66.366L35.7873 66.5451L35.6121 66.7188L35.4316 66.8763L35.2457 67.0283L35.0545 67.1694L34.8581 67.2943L34.6563 67.4137L34.4492 67.5223L34.2368 67.62L34.0244 67.7014L33.8066 67.7774L33.5836 67.8426L33.3606 67.8969L33.1376 67.9349L32.9092 67.9674L32.6862 67.9891L32.4578 68L32.2295 67.9946L32.0012 67.9837L31.7728 67.9566L31.5445 67.924L31.3162 67.8751L31.0931 67.8154L30.8701 67.7449L30.6471 67.6634L30.4294 67.5711L30.2169 67.468L30.0099 67.354L29.8028 67.2237L29.6063 67.0826L29.4098 66.936ZM29.4098 66.936C28.9053 66.5234 28.8257 65.7688 29.2293 65.2585C29.6328 64.7428 30.3656 64.6614 30.8701 65.074L29.4098 66.936ZM29.4098 66.936C28.9053 66.5234 28.8257 65.7688 29.2293 65.2585C29.6328 64.7428 30.3656 64.6614 30.8701 65.074L29.4098 66.936ZM28.6664 60.0851L30.4878 61.5779L30.4134 61.6811L30.3444 61.7842L30.2807 61.8874L30.2223 61.9959L30.1692 62.1099L30.1267 62.2185L30.0842 62.3325L30.0523 62.4519L30.0205 62.5659L29.9992 62.6854L29.978 62.8048L29.9674 62.9242L29.9621 63.0437V63.1631L29.9674 63.2825L29.9727 63.4019L29.9886 63.5214L30.0099 63.6408L30.0364 63.7602L30.0683 63.8742L30.1107 63.9882L30.1532 64.1022L30.201 64.2108L30.2541 64.3194L30.3125 64.4225L30.3763 64.5257L30.4453 64.6234L30.5196 64.7211L30.5993 64.8134L30.6842 64.9057L30.7745 64.9871L30.8701 65.074L29.4098 66.936L29.2239 66.7731L29.0487 66.6048L28.8788 66.4257L28.7248 66.2411L28.5761 66.0511L28.438 65.8557L28.3159 65.6548L28.1991 65.4485L28.0929 65.2368L27.9973 65.0197L27.9176 64.8025L27.8433 64.58L27.7796 64.3574L27.7265 64.1294L27.684 63.896L27.6574 63.668L27.6362 63.4345L27.6256 63.2011L27.6309 62.9677L27.6415 62.7342L27.6681 62.5008L27.6999 62.2674L27.7477 62.0339L27.8061 61.8059L27.8698 61.5779L27.9495 61.3554L28.0451 61.1328L28.146 60.9156L28.2575 60.6985L28.3849 60.4868L28.523 60.2859L28.6664 60.0851ZM28.6664 60.0851C29.0699 59.5693 29.8028 59.4879 30.3072 59.9005C30.8117 60.3131 30.8913 61.0622 30.4878 61.5779L28.6664 60.0851ZM32.341 59.2165L30.4878 61.5779L28.6664 60.0851L30.5196 57.7236L32.341 59.2165ZM30.5196 57.7236C30.9179 57.2079 31.656 57.1264 32.1552 57.539C32.6596 57.9516 32.7393 58.7008 32.341 59.2165L30.5196 57.7236ZM37.2158 56.9636L35.7555 58.8256L35.6599 58.7496L35.5537 58.679L35.4528 58.6139L35.3466 58.5542L35.2404 58.4999L35.1289 58.4565L35.0174 58.413L34.9058 58.3805L34.789 58.3479L34.6722 58.3262L34.5554 58.3045L34.4385 58.2936L34.3217 58.2882H34.2049L34.0881 58.2936L33.9713 58.299L33.8544 58.3153L33.7376 58.337L33.6261 58.3642L33.5093 58.4022L33.3978 58.4402L33.2915 58.4836L33.18 58.5325L33.0791 58.5867L32.9729 58.6465L32.872 58.7116L32.7765 58.7822L32.6809 58.8582L32.5906 58.9396L32.5056 59.0265L32.4207 59.1188L32.341 59.2165L30.5196 57.7236L30.6736 57.5336L30.8382 57.3544L31.0135 57.1807L31.194 57.0233L31.3799 56.8713L31.571 56.7302L31.7675 56.6053L31.9693 56.4859L32.1764 56.3773L32.3888 56.2796L32.6012 56.1981L32.8189 56.1221L33.042 56.057L33.265 56.0027L33.488 55.9647L33.7111 55.9321L33.9394 55.9104L34.1677 55.8996L34.3961 55.905L34.6244 55.9159L34.8527 55.943L35.0811 55.9756L35.3094 56.0244L35.5324 56.0841L35.7555 56.1493L35.9785 56.2361L36.1909 56.3284L36.4086 56.4316L36.6157 56.5456L36.8228 56.6759L37.0193 56.817L37.2158 56.9636ZM37.2158 56.9636C37.7202 57.3762 37.7999 58.1253 37.3963 58.641C36.9927 59.1568 36.2599 59.2382 35.7555 58.8256L37.2158 56.9636ZM14.4563 45.7752C14.69 46.3886 14.3926 47.0835 13.7925 47.3223C13.1978 47.5612 12.5181 47.2572 12.2844 46.6437L14.4563 45.7752ZM9.43287 42.1163L10.8985 40.2651L11.1215 40.4497L11.3286 40.6342L11.5304 40.8188L11.7162 41.0034L11.9021 41.1825L12.072 41.3671L12.2366 41.5517L12.3906 41.7308L12.5393 41.9154L12.6774 42.0945L12.8101 42.2791L12.9376 42.4583L13.0544 42.6374L13.1659 42.8166L13.2721 42.9957L13.3677 43.1748L13.4633 43.3486L13.5536 43.5223L13.6332 43.696L13.7129 43.8643L13.7872 44.038L13.8563 44.2063L13.9253 44.3691L13.989 44.532L14.0527 44.6949L14.1111 44.8523L14.1749 45.0152L14.228 45.1672L14.2864 45.3246L14.3448 45.4766L14.3979 45.6286L14.4563 45.7752L12.2844 46.6437L12.2207 46.4809L12.1623 46.3235L12.1039 46.166L12.0455 46.0086L11.9924 45.8566L11.934 45.71L11.8809 45.5634L11.8225 45.4169L11.7694 45.2757L11.7109 45.1346L11.6525 44.9989L11.5941 44.8632L11.5304 44.7274L11.4667 44.5972L11.4029 44.4669L11.3339 44.3366L11.2596 44.2009L11.1799 44.076L11.1003 43.9403L11.0153 43.81L10.925 43.6797L10.8294 43.5494L10.7232 43.4137L10.6117 43.278L10.4949 43.1423L10.3728 43.0011L10.24 42.86L10.0966 42.7188L9.94796 42.5723L9.78865 42.4203L9.61341 42.2737L9.43287 42.1163ZM9.43287 42.1163C8.93371 41.7037 8.85406 40.9545 9.25763 40.4442C9.66652 39.9285 10.3993 39.8525 10.8985 40.2651L9.43287 42.1163Z" fill="white"/>
<path d="M21.2651 42.0379C21.7556 42.4403 21.833 43.1711 21.4406 43.6741C21.0482 44.1719 20.3356 44.2566 19.8451 43.8542L21.2651 42.0379ZM21.988 48.7153L20.2169 47.2591L20.2892 47.1637L20.3563 47.0578L20.4182 46.9572L20.475 46.8513L20.5215 46.7454L20.568 46.6342L20.6093 46.523L20.6403 46.4118L20.6713 46.2953L20.6919 46.1788L20.7126 46.0623L20.7229 45.9458L20.7281 45.8293V45.7128L20.7229 45.5963L20.7126 45.4798L20.6971 45.3633L20.6764 45.2468L20.6506 45.1356L20.6196 45.0191L20.5835 44.9079L20.5422 44.802L20.4957 44.6908L20.4441 44.5902L20.3873 44.4843L20.3253 44.3837L20.2582 44.2884L20.1859 44.1984L20.1084 44.1031L20.0258 44.0183L19.938 43.9336L19.8451 43.8542L21.2651 42.0379L21.4458 42.1914L21.6162 42.3609L21.7814 42.5303L21.9312 42.7104L22.0757 42.8957L22.2048 43.0864L22.3287 43.2823L22.4423 43.4835L22.5456 43.69L22.6334 43.9018L22.716 44.1136L22.7883 44.3308L22.8503 44.5532L22.9019 44.7756L22.938 44.998L22.969 45.2257L22.9897 45.4481L23 45.6758L22.9948 45.9035L22.9845 46.1312L22.9587 46.3642L22.9277 46.5866L22.8812 46.8143L22.8244 47.0367L22.7573 47.2591L22.6799 47.4815L22.5921 47.6986L22.494 47.9104L22.3855 48.1169L22.2616 48.3234L22.1274 48.5193L21.988 48.7153ZM21.988 48.7153C21.5955 49.2183 20.8778 49.2978 20.3924 48.8953C19.9019 48.4929 19.8244 47.7621 20.2169 47.2591L21.988 48.7153ZM17.475 50.7699L20.2169 47.2591L21.988 48.7153L19.2461 52.2261L17.475 50.7699ZM19.2461 52.2261C18.8537 52.7238 18.1411 52.8086 17.6506 52.4061C17.1652 52.0037 17.0826 51.2729 17.475 50.7699L19.2461 52.2261ZM12.7349 52.9621L14.1497 51.1458L14.2478 51.2253L14.346 51.2941L14.4492 51.3576L14.5525 51.4106L14.6558 51.4635L14.7642 51.5112L14.8726 51.5483L14.9811 51.5853L15.0947 51.6171L15.2083 51.6383L15.3167 51.6542L15.4303 51.6701L15.5491 51.6754H15.6627L15.7762 51.6701L15.8898 51.6595L16.0034 51.6436L16.117 51.6224L16.2255 51.5959L16.3391 51.5642L16.4475 51.5271L16.5508 51.4847L16.654 51.4371L16.7573 51.3841L16.8606 51.3259L16.9535 51.2623L17.0516 51.1935L17.1394 51.1193L17.2324 51.0399L17.315 50.9552L17.3976 50.8652L17.475 50.7699L19.2461 52.2261L19.0964 52.4114L18.9312 52.5862L18.7659 52.7503L18.5904 52.9092L18.4096 53.0574L18.2238 53.1898L18.0327 53.3169L17.8365 53.4334L17.6351 53.5393L17.4286 53.6293L17.222 53.714L17.0103 53.7882L16.7935 53.8517L16.5766 53.8994L16.3597 53.9417L16.1377 53.9735L15.9208 53.9947L15.6988 54H15.4716L15.2496 53.9894L15.0275 53.9629L14.8107 53.9312L14.5886 53.8835L14.3718 53.8253L14.1549 53.7564L13.938 53.677L13.7263 53.587L13.5198 53.4864L13.3184 53.3699L13.117 53.2481L12.9208 53.1104L12.7349 52.9621ZM12.7349 52.9621C12.2444 52.565 12.167 51.8289 12.5594 51.3312C12.9466 50.8281 13.6644 50.7487 14.1497 51.1458L12.7349 52.9621ZM12.7349 52.9621C12.2444 52.565 12.167 51.8289 12.5594 51.3312C12.9466 50.8281 13.6644 50.7487 14.1497 51.1458L12.7349 52.9621ZM12.012 46.2847L13.7831 47.7409L13.7108 47.8363L13.6437 47.9422L13.5818 48.0428L13.525 48.1487L13.4733 48.2599L13.432 48.3658L13.3907 48.477L13.3546 48.5935L13.3287 48.7047L13.3081 48.8212L13.2874 48.9377L13.2771 49.0542L13.2719 49.1707L13.2668 49.2872L13.2719 49.4037L13.2823 49.5202L13.2978 49.6367L13.3184 49.7532L13.3442 49.8697L13.3752 49.9809L13.4114 50.0921L13.4527 50.198L13.4991 50.3092L13.5508 50.4098L13.6127 50.5157L13.6747 50.6163L13.7367 50.7116L13.809 50.8069L13.8864 50.8969L13.969 50.9817L14.0568 51.0664L14.1497 51.1458L12.7349 52.9621L12.5542 52.8086L12.3787 52.6444L12.2186 52.4697L12.0637 52.2896L11.9243 52.1043L11.79 51.9136L11.6661 51.7177L11.5577 51.5165L11.4544 51.31L11.3614 51.0982L11.2788 50.8864L11.2117 50.6692L11.1497 50.4468L11.0981 50.2244L11.0568 50.002L11.0258 49.7796L11.0103 49.5519L11 49.3242V49.0965L11.0155 48.8688L11.0361 48.6411L11.0723 48.4134L11.1188 48.1857L11.1704 47.9633L11.2375 47.7409L11.315 47.5185L11.4028 47.3067L11.506 47.0896L11.6145 46.8831L11.7384 46.6766L11.8675 46.4807L12.012 46.2847ZM12.012 46.2847C12.4045 45.7817 13.117 45.7022 13.6076 46.1047C14.0981 46.5071 14.1756 47.2379 13.7831 47.7409L12.012 46.2847ZM16.525 44.2301L13.7831 47.7409L12.012 46.2847L14.7539 42.7739L16.525 44.2301ZM14.7539 42.7739C15.1411 42.2762 15.8589 42.1914 16.3442 42.5939C16.8348 42.9963 16.9122 43.7271 16.525 44.2301L14.7539 42.7739ZM21.2651 42.0379L19.8451 43.8542L19.747 43.78L19.6489 43.7059L19.5508 43.6477L19.4475 43.5894L19.3391 43.5365L19.2358 43.4888L19.1274 43.4517L19.0138 43.4147L18.9053 43.3882L18.7917 43.3617L18.6781 43.3458L18.5645 43.3352L18.4509 43.3246H18.3373L18.2238 43.3299L18.1102 43.3405L17.9966 43.3564L17.883 43.3776L17.7694 43.4041L17.6609 43.4358L17.5525 43.4729L17.4441 43.5153L17.3408 43.5629L17.2375 43.6159L17.1394 43.6741L17.0413 43.7377L16.9484 43.8065L16.8554 43.8807L16.7676 43.9601L16.685 44.0448L16.6024 44.1348L16.525 44.2301L14.7539 42.7792L14.9036 42.5886L15.0637 42.4138L15.2341 42.2497L15.4096 42.0908L15.5904 41.9426L15.7762 41.8102L15.9673 41.6831L16.1635 41.5666L16.3649 41.466L16.5714 41.3707L16.778 41.286L16.9897 41.2118L17.2065 41.1483L17.4182 41.1006L17.6403 41.0583L17.8571 41.0265L18.0792 41.0053L18.3012 41H18.5232L18.7453 41.0159L18.9673 41.0371L19.1893 41.0741L19.4114 41.1165L19.6282 41.1747L19.8451 41.2436L20.0568 41.323L20.2685 41.413L20.4802 41.5136L20.6816 41.6301L20.883 41.7519L21.074 41.8896L21.2651 42.0379ZM21.2651 42.0379C21.7556 42.4403 21.833 43.1711 21.4406 43.6741C21.0482 44.1719 20.3356 44.2566 19.8451 43.8542L21.2651 42.0379Z" fill="white"/>
</svg>
