<svg width="83" height="83" viewBox="0 0 83 83" fill="none" xmlns="http://www.w3.org/2000/svg">
<path d="M40.9837 9C39.6844 9.00421 38.4042 9.31513 37.2456 9.90783C35.5908 10.7537 34.3009 12.1198 33.3647 13.8647C32.8834 14.7836 32.9757 14.5511 32.3406 15.6582L29.8024 20.08L25.6643 27.2497L24.704 28.9148H29.7804L30.0991 28.3656L33.602 22.2809C34.6415 20.4741 35.5183 18.9574 36.1468 17.8613C36.7753 16.7653 37.0896 16.2228 37.2368 15.9438C37.8566 14.7858 38.384 14.2743 39.2366 13.8403C39.997 13.4506 40.1003 13.4395 41.0145 13.424H41.0694C42.0342 13.4019 42.3089 13.4683 43.0473 13.8469C43.7791 14.2211 44.4845 14.9164 45.0866 16.0656C45.1811 16.2449 45.2559 16.3667 45.4317 16.6723C45.6075 16.9823 45.858 17.4207 46.1744 17.9676C46.803 19.0614 47.6842 20.5937 48.7324 22.4094L48.9939 22.8588L44.8471 21.7407L43.7131 26.0163L55.3823 29.165L58.5183 17.4074L54.2682 16.256L53.9847 17.3277L53.0068 21.0122L52.5299 20.1929L49.9807 15.7667L49.2423 14.4736C49.0445 14.1304 49.1148 14.2964 48.9852 14.0329C47.9962 12.2859 46.5942 10.8068 45.0405 9.9034C43.7725 9.32305 42.3983 9.01537 41.0057 9H40.9837ZM20.678 39.7401L19.6188 40.028L9 42.8954L10.1405 47.1733L14.9225 45.8757L14.6566 46.3407C13.5387 48.2753 12.4194 50.2091 11.2987 52.142C11.1075 52.4697 10.9361 52.762 10.9954 52.6645C9.79553 54.6264 9.21976 56.3003 9.25932 58.1669C9.31426 60.4697 10.2263 62.5289 11.8832 64.1564C12.6172 64.876 13.2567 65.3454 14.0369 65.7086C14.5621 65.9521 15.1357 66.1824 15.6895 66.3219C16.463 66.5212 17.2344 66.5234 19.8935 66.5477C21.6845 66.5699 26.1742 66.5699 30.1386 66.5699H31.2374V62.1326H30.1386C26.1764 62.1326 21.6669 62.1348 19.9264 62.1104C18.4189 62.1104 17.4102 62.1326 16.7289 61.9931C16.0477 61.8624 15.6433 61.6609 14.9709 60.9812C13.9248 59.9494 13.705 59.4356 13.6743 58.054C13.6479 56.9291 13.7402 56.628 14.7555 54.9696C14.9071 54.726 15.2499 54.1237 15.8916 53.0166L18.4716 48.5572C18.8408 49.837 19.2166 51.3028 19.5748 52.649L23.8249 51.5065L20.678 39.7401ZM60.1665 42.209L61.1269 43.8741C62.95 47.0261 64.774 50.1777 66.5989 53.3288C67.2427 54.4337 67.5658 55.0006 67.7328 55.2685C68.6052 56.6745 68.5965 57.1506 68.5965 57.9278C68.4932 59.2342 68.08 59.9029 67.5526 60.7664C66.8911 61.506 66.5351 61.7185 65.5989 61.9599C65.3308 62.0263 65.2869 62.044 64.9045 62.0639C64.5199 62.0861 63.8431 62.0927 62.5751 62.1082C61.0675 62.1304 57.0218 62.1392 53.6594 62.1304H52.4222L55.6197 58.9109L52.5123 55.78L51.7365 56.5616L43.9681 64.3889L52.5123 73L55.6197 69.8691L52.3453 66.5699H54.745C57.8041 66.5699 61.2191 66.5699 62.6344 66.5477C65.1946 66.519 65.8868 66.4702 66.6933 66.2621C68.2904 65.858 69.7299 64.9793 70.8248 63.7401C71.6819 62.7836 72.3126 61.7008 72.6906 60.4985C72.9301 59.739 73.0136 59.0304 72.9982 57.8901C72.9763 56.0855 72.5104 54.6131 71.4665 52.9347L70.4029 51.1079L67.8141 46.6418L65.5704 42.7581L65.2517 42.209H60.1665Z" fill="white"/>
</svg>
