<svg width="83" height="83" viewBox="0 0 83 83" fill="none" xmlns="http://www.w3.org/2000/svg">
<path fill-rule="evenodd" clip-rule="evenodd" d="M66.5449 53.4411C66.5449 53.9238 66.1802 54.3278 65.7012 54.3794L58.9663 55.0917C58.5254 56.8074 57.8573 58.4149 56.9719 59.8837L61.2174 65.1413C61.5195 65.5158 61.4913 66.0586 61.1499 66.4001L57.2248 70.3251C56.8834 70.6665 56.3394 70.6947 55.9636 70.3902L50.7122 66.1274C49.2397 67.0313 47.6358 67.7043 45.9263 68.1329L45.203 74.8506C45.1514 75.3296 44.7461 75.6931 44.2647 75.6931H42.4397H40.5534H38.7223C38.2396 75.6931 37.8356 75.3296 37.784 74.8494L37.0729 68.1329C35.3573 67.7055 33.7485 67.0325 32.2747 66.1262L27.0086 70.3914C26.6378 70.6935 26.0912 70.6677 25.7486 70.3251L21.8236 66.4001C21.4822 66.0586 21.4539 65.5146 21.7573 65.14L26.0163 59.8801C25.1284 58.3904 24.4554 56.757 24.0415 55.0905L17.2993 54.3794C16.8203 54.329 16.4556 53.9238 16.4556 53.4411V48.5742C16.4556 48.0915 16.8203 47.6862 17.2993 47.6359L24.0403 46.9248C24.3639 45.6178 24.8494 44.3582 25.4711 43.1582C24.2931 41.8175 23.4266 40.1637 22.8306 38.0788C21.8879 34.9737 21.5915 30.9382 21.8015 28.0919C21.8383 27.6289 22.2068 27.2617 22.6685 27.2248C22.6685 27.2248 23.36 27.1708 24.4689 27.1708C31.5602 27.1708 37.8612 28.7766 40.5534 34.8228V31.0378C38.9619 29.5963 32.3018 23.173 32.3018 16.5711C32.3018 9.22088 40.5472 2.0979 40.8972 1.79824C41.2522 1.49613 41.7704 1.49613 42.1229 1.79824C42.4729 2.0979 50.7036 9.22088 50.7036 16.5711C50.7036 23.2129 43.9754 29.6735 42.4397 31.0617V34.897C45.1779 28.6724 51.7856 27.1708 58.5573 27.1708C59.6675 27.1708 60.3577 27.2248 60.3577 27.2248C60.8207 27.2617 61.1879 27.6301 61.2248 28.0919L61.2249 28.0941C61.2382 28.275 61.5002 31.8491 60.7458 35.7945C60.139 38.951 59.0525 41.4318 57.5241 43.2011C58.1224 44.3665 58.6232 45.6006 58.9638 46.9236L65.7012 47.6359C66.1802 47.6875 66.5449 48.0915 66.5449 48.5742V53.4411ZM42.5503 42.6302C42.5503 40.281 43.6152 35.2634 46.0847 32.6924C49.3748 29.4109 55.9034 29.0572 58.5573 29.0572C58.8705 29.0572 59.1468 29.0621 59.3802 29.0682C59.4133 30.3184 59.3937 32.8189 58.8938 35.4396C57.6499 41.9006 54.6232 45.76 43.8183 45.9598L51.3656 38.4055C51.734 38.0371 51.734 37.439 51.3656 37.0718C50.9959 36.7021 50.3991 36.7046 50.0319 37.0718L42.4691 44.6417C42.4759 43.9927 42.4981 43.3769 42.5515 42.8316C42.5589 42.764 42.5576 42.6965 42.5503 42.6302ZM34.1881 16.5711C34.1881 11.1711 39.647 5.55132 41.5101 3.79268C43.3694 5.55255 48.8173 11.1711 48.8173 16.5711C48.8173 21.227 44.7546 26.0542 42.4483 28.4202L42.4434 19.6966C42.4434 19.1759 42.021 18.7534 41.5002 18.7534C40.9783 18.7534 40.5571 19.1759 40.5571 19.6966L40.5591 23.4076C40.559 23.4125 40.5576 23.417 40.5563 23.4215C40.5548 23.4262 40.5534 23.4309 40.5534 23.4362V28.4061C38.2411 26.0376 34.1881 21.2249 34.1881 16.5711ZM23.6449 29.0682C36.0064 28.7429 40.1955 32.9914 40.4902 44.6039L32.9662 37.0718C32.599 36.7046 32.0021 36.7021 31.6324 37.0718C31.264 37.439 31.264 38.0371 31.6324 38.4055L39.1803 45.9615L39.157 45.961C38.9793 45.9578 38.8014 45.9546 38.6112 45.948C31.5391 45.5418 26.5632 44.2718 24.6396 37.547C23.8477 34.9189 23.5724 31.7884 23.6449 29.0682ZM57.2813 54.022C56.849 55.998 56.0913 57.8181 55.0278 59.4318C54.8018 59.7744 54.8239 60.2239 55.0806 60.5432L59.2168 65.6656L56.4929 68.3896L51.3705 64.2325C51.05 63.9709 50.5931 63.95 50.2492 64.1821C48.6355 65.2702 46.8241 66.0304 44.8665 66.4406C44.4673 66.5253 44.1664 66.8569 44.1222 67.2634L43.4173 73.8067H39.5709L38.8782 67.2646C38.8353 66.8569 38.5331 66.5241 38.1328 66.4406C36.1678 66.0304 34.3527 65.2714 32.7377 64.1821C32.3939 63.95 31.9382 63.9733 31.6177 64.2312L26.4818 68.3908L23.7579 65.6669L27.9051 60.5445C28.1618 60.2264 28.1852 59.7794 27.9629 59.4367C26.8932 57.7947 26.1232 55.9268 25.7351 54.0343C25.6528 53.6315 25.3188 53.3281 24.911 53.2852L18.3419 52.5925V49.4228L24.911 48.7301C25.3188 48.6871 25.6528 48.3838 25.7351 47.981C25.9795 46.7885 26.3651 45.6316 26.8858 44.53C27.7575 45.202 29.0761 45.9366 30.4972 46.4528C29.0494 49.9242 29.316 53.8439 31.3045 57.15C33.4746 60.7569 37.2829 62.9098 41.4929 62.9098L41.4947 62.9096L41.4962 62.9098L41.4976 62.9095C45.7059 62.9076 49.5121 60.7566 51.68 57.1525C53.6677 53.8482 53.9339 49.93 52.4873 46.4633C53.6923 46.0287 55.1009 45.3192 56.1146 44.5349C56.6206 45.6132 57.0112 46.7725 57.2813 47.9957C57.3685 48.3912 57.7001 48.6871 58.1029 48.7301L64.6585 49.4228V52.5925L58.1029 53.2852C57.6989 53.3281 57.3673 53.6253 57.2813 54.022ZM50.0626 56.181C51.7708 53.3417 51.9894 49.9644 50.6913 47.0083C47.995 47.6437 45.1034 47.8728 42.4397 47.9124L40.5534 47.9096C40.1238 47.9015 39.6991 47.8884 39.2788 47.8707C36.8913 47.8513 34.5851 47.5922 32.2915 47.0007C30.9939 49.9603 31.2139 53.3383 32.9207 56.1773C34.5833 58.94 37.3917 60.6722 40.5534 60.9634C40.8763 61.0056 41.7056 61.0647 42.4397 60.9629C45.5985 60.6698 48.4035 58.9393 50.0626 56.181Z" fill="white"/>
<path d="M39.1803 45.9615L31.6324 38.4055C31.264 38.0371 31.264 37.439 31.6324 37.0718C32.0021 36.7021 32.599 36.7046 32.9662 37.0718L40.4902 44.6039C40.1955 32.9914 36.0064 28.7429 23.6449 29.0682C23.5724 31.7884 23.8477 34.9189 24.6396 37.547C26.5632 44.2718 31.5391 45.5418 38.6112 45.948C38.8014 45.9546 38.9793 45.9578 39.157 45.961M39.1803 45.9615L39.157 45.961M39.1803 45.9615C39.1725 45.9613 39.1648 45.9612 39.157 45.961M65.7012 54.3794C66.1802 54.3278 66.5449 53.9238 66.5449 53.4411V48.5742C66.5449 48.0915 66.1802 47.6875 65.7012 47.6359L58.9638 46.9236C58.6232 45.6006 58.1224 44.3665 57.5241 43.2011C59.0525 41.4318 60.139 38.951 60.7458 35.7945C61.5002 31.8491 61.2382 28.275 61.2249 28.0941L61.2248 28.0919C61.1879 27.6301 60.8207 27.2617 60.3577 27.2248C60.3577 27.2248 59.6675 27.1708 58.5573 27.1708C51.7856 27.1708 45.1779 28.6724 42.4397 34.897V31.0617C43.9754 29.6735 50.7036 23.2129 50.7036 16.5711C50.7036 9.22088 42.4729 2.0979 42.1229 1.79824C41.7704 1.49613 41.2522 1.49613 40.8972 1.79824C40.5472 2.0979 32.3018 9.22088 32.3018 16.5711C32.3018 23.173 38.9619 29.5963 40.5534 31.0378V34.8228C37.8612 28.7766 31.5602 27.1708 24.4689 27.1708C23.36 27.1708 22.6685 27.2248 22.6685 27.2248C22.2068 27.2617 21.8383 27.6289 21.8015 28.0919C21.5915 30.9382 21.8879 34.9737 22.8306 38.0788C23.4266 40.1637 24.2931 41.8175 25.4711 43.1582C24.8494 44.3582 24.3639 45.6178 24.0403 46.9248L17.2993 47.6359C16.8203 47.6862 16.4556 48.0915 16.4556 48.5742V53.4411C16.4556 53.9238 16.8203 54.329 17.2993 54.3794L24.0415 55.0905C24.4554 56.757 25.1284 58.3904 26.0163 59.8801L21.7573 65.14C21.4539 65.5146 21.4822 66.0586 21.8236 66.4001L25.7486 70.3251C26.0912 70.6677 26.6378 70.6935 27.0086 70.3914L32.2747 66.1262C33.7485 67.0325 35.3573 67.7055 37.0729 68.1329L37.784 74.8494C37.8356 75.3296 38.2396 75.6931 38.7223 75.6931H40.5534H42.4397H44.2647C44.7461 75.6931 45.1514 75.3296 45.203 74.8506L45.9263 68.1329C47.6358 67.7043 49.2397 67.0313 50.7122 66.1274L55.9636 70.3902C56.3394 70.6947 56.8834 70.6665 57.2248 70.3251L61.1499 66.4001C61.4913 66.0586 61.5195 65.5158 61.2174 65.1413L56.9719 59.8837C57.8573 58.4149 58.5254 56.8074 58.9663 55.0917L65.7012 54.3794ZM42.5503 42.6302C42.5503 40.281 43.6152 35.2634 46.0847 32.6924C49.3748 29.4109 55.9034 29.0572 58.5573 29.0572C58.8705 29.0572 59.1468 29.0621 59.3802 29.0682C59.4133 30.3184 59.3937 32.8189 58.8938 35.4396C57.6499 41.9006 54.6232 45.76 43.8183 45.9598L51.3656 38.4055C51.734 38.0371 51.734 37.439 51.3656 37.0718C50.9959 36.7021 50.3991 36.7046 50.0319 37.0718L42.4691 44.6417C42.4759 43.9927 42.4981 43.3769 42.5515 42.8316C42.5589 42.764 42.5576 42.6965 42.5503 42.6302ZM50.6913 47.0083C51.9894 49.9644 51.7708 53.3417 50.0626 56.181C48.4035 58.9393 45.5985 60.6698 42.4397 60.9629C41.7056 61.0647 40.8763 61.0056 40.5534 60.9634C37.3917 60.6722 34.5833 58.94 32.9207 56.1773C31.2139 53.3383 30.9939 49.9603 32.2915 47.0007C34.5851 47.5922 36.8913 47.8513 39.2788 47.8707C39.6991 47.8884 40.1238 47.9015 40.5534 47.9096L42.4397 47.9124C45.1034 47.8728 47.995 47.6437 50.6913 47.0083ZM34.1881 16.5711C34.1881 11.1711 39.647 5.55132 41.5101 3.79268C43.3694 5.55255 48.8173 11.1711 48.8173 16.5711C48.8173 21.227 44.7546 26.0542 42.4483 28.4202L42.4434 19.6966C42.4434 19.1759 42.021 18.7534 41.5002 18.7534C40.9783 18.7534 40.5571 19.1759 40.5571 19.6966L40.5591 23.4076C40.559 23.4125 40.5576 23.417 40.5563 23.4215C40.5548 23.4262 40.5534 23.4309 40.5534 23.4362V28.4061C38.2411 26.0376 34.1881 21.2249 34.1881 16.5711ZM57.2813 54.022C56.849 55.998 56.0913 57.8181 55.0278 59.4318C54.8018 59.7744 54.8239 60.2239 55.0806 60.5432L59.2168 65.6656L56.4929 68.3896L51.3705 64.2325C51.05 63.9709 50.5931 63.95 50.2492 64.1821C48.6355 65.2702 46.8241 66.0304 44.8665 66.4406C44.4673 66.5253 44.1664 66.8569 44.1222 67.2634L43.4173 73.8067H39.5709L38.8782 67.2646C38.8353 66.8569 38.5331 66.5241 38.1328 66.4406C36.1678 66.0304 34.3527 65.2714 32.7377 64.1821C32.3939 63.95 31.9382 63.9733 31.6177 64.2312L26.4818 68.3908L23.7579 65.6669L27.9051 60.5445C28.1618 60.2264 28.1852 59.7794 27.9629 59.4367C26.8932 57.7947 26.1232 55.9268 25.7351 54.0343C25.6528 53.6315 25.3188 53.3281 24.911 53.2852L18.3419 52.5925V49.4228L24.911 48.7301C25.3188 48.6871 25.6528 48.3838 25.7351 47.981C25.9795 46.7885 26.3651 45.6316 26.8858 44.53C27.7575 45.202 29.0761 45.9366 30.4972 46.4528C29.0494 49.9242 29.316 53.8439 31.3045 57.15C33.4746 60.7569 37.2829 62.9098 41.4929 62.9098L41.4947 62.9096L41.4962 62.9098L41.4976 62.9095C45.7059 62.9076 49.5121 60.7566 51.68 57.1525C53.6677 53.8482 53.9339 49.93 52.4873 46.4633C53.6923 46.0287 55.1009 45.3192 56.1146 44.5349C56.6206 45.6132 57.0112 46.7725 57.2813 47.9957C57.3685 48.3912 57.7001 48.6871 58.1029 48.7301L64.6585 49.4228V52.5925L58.1029 53.2852C57.6989 53.3281 57.3673 53.6253 57.2813 54.022Z" stroke="white" stroke-width="0.5"/>
</svg>
