<svg width="83" height="83" viewBox="0 0 83 83" fill="none" xmlns="http://www.w3.org/2000/svg">
<path d="M68.3372 40.726C71.7984 24.4918 61.3593 8.47808 45.0681 5.02892C44.721 4.9557 44.3589 5.02281 44.0615 5.21552C43.7641 5.40822 43.5556 5.71074 43.4819 6.05656L42.6202 10.096C30.2916 8.0496 18.1771 16.116 14.9942 27.6636C11.0083 40.7437 19.4546 55.0435 32.3452 58.29L31.4834 62.3312C31.4099 62.6771 31.4773 63.0379 31.6707 63.3342C31.8641 63.6306 32.1676 63.8384 32.5147 63.9118C33.5221 64.1255 34.5398 64.2881 35.5638 64.3989L34.2078 70.355H21.3048C19.6255 70.3568 18.0156 71.0224 16.8282 72.2057C15.6408 73.3889 14.9729 74.9932 14.971 76.6666C14.971 77.0202 15.1119 77.3594 15.3629 77.6094C15.6138 77.8595 15.9542 78 16.3091 78H62.8062C63.1611 78 63.5015 77.8595 63.7524 77.6094C64.0034 77.3594 64.1444 77.0202 64.1444 76.6666C64.142 74.9933 63.4739 73.3893 62.2866 72.2062C61.0993 71.023 59.4897 70.3573 57.8106 70.355H44.9111L43.5141 64.2105C55.5839 62.429 65.9482 52.718 68.3372 40.726ZM27.8366 15.3817C29.1604 17.9331 33.5334 18.8558 37.1535 19.0336C38.4649 19.1314 39.4997 19.2114 39.8298 19.5936C40.0777 19.8888 40.3204 20.7333 40.0724 23.0783C39.737 26.2573 40.7236 28.9295 41.5176 31.079C42.01 32.416 42.5203 33.7974 42.2473 34.3717C42.0831 34.7113 41.5229 34.9619 41.0822 35.1131C39.1518 35.7691 37.5014 35.6002 36.0438 35.4527C33.8813 35.2322 31.4317 34.9833 29.8527 38.1942C28.9285 40.0735 25.7759 41.5367 23.9364 40.9393C22.3092 40.4059 22.3217 38.2902 22.6197 36.6047C23.5118 31.8044 22.1397 27.9232 18.1022 26.8173C19.9122 21.9925 23.3548 17.9482 27.8366 15.3817ZM16.707 34.4712C16.7067 32.7509 16.9091 31.0366 17.31 29.3633C20.0933 30.1065 20.5215 32.6933 19.972 36.1371C18.9871 42.1821 22.2789 43.6897 24.8374 43.7271C27.6921 43.7271 30.9963 41.8976 32.2435 39.3587C32.9714 37.8795 33.5727 37.876 35.7601 38.0982C37.4033 38.2653 39.4497 38.4751 41.9351 37.6288C43.3035 37.163 44.192 36.4714 44.6506 35.5113C46.1296 32.4426 42.0671 28.0441 42.7219 23.3504C43.3035 18.2371 41.9065 16.5089 37.3498 16.3667C35.0553 16.2565 31.1658 15.6929 30.2399 14.1852C38.2936 10.6809 48.3777 12.6989 54.4546 18.9856C51.3822 20.0523 50.9558 22.8828 52.5384 26.3657C54.7061 31.2052 54.5991 31.6941 54.1851 33.5165C54.0603 34.0765 53.9032 34.7753 53.7659 35.6944C53.1931 39.5508 56.9684 42.2639 58.9578 43.4088C58.2834 44.9139 57.4413 46.3387 56.4475 47.6563C55.2985 45.5566 52.831 43.3324 49.0931 43.4462C46.1421 43.5066 44.8807 44.1093 44.0457 44.5129C43.448 44.7974 43.3713 44.8347 42.1224 44.1911C38.3418 42.1092 34.3149 41.1687 33.1819 46.1575C32.6467 48.6092 34.6378 50.5294 36.3934 52.2237C38.1491 53.9181 39.3141 55.152 39.2642 56.4676C27.205 56.8286 16.6302 46.8509 16.707 34.4712ZM59.9088 40.8717C58.2441 39.8459 56.121 38.052 56.4136 36.0803C56.5349 35.2571 56.6741 34.6384 56.7972 34.0925C57.352 31.6248 57.4038 30.6736 54.9809 25.2652C53.8676 22.6339 53.9568 21.3715 56.5028 21.3538C60.5546 26.572 62.0016 34.4055 59.9088 40.8806V40.8717ZM41.9583 56.2454C41.9583 52.0175 35.5067 49.1835 35.7975 46.7264C35.9224 46.1575 36.1544 45.4374 36.5879 45.2383C37.4996 44.8116 39.8779 46.0366 40.8931 46.5593C43.0876 47.6901 43.9262 47.5265 45.2037 46.9149C45.8674 46.5984 46.7773 46.1628 49.1484 46.1148C52.6508 46.0437 54.0638 48.6288 54.5331 49.8733C51.1553 53.3129 46.7372 55.5516 41.9583 56.2454ZM57.8106 73.0218C58.5451 73.0228 59.2624 73.2436 59.8694 73.6557C60.4764 74.0679 60.9451 74.6523 61.2148 75.3331H17.9006C18.1702 74.6523 18.6389 74.0679 19.2459 73.6557C19.853 73.2436 20.5702 73.0228 21.3048 73.0218H35.2712C35.5747 73.0218 35.8692 72.919 36.1065 72.7304C36.3438 72.5417 36.5097 72.2784 36.5772 71.9835L38.1241 65.1794H40.9788L42.5274 71.9835C42.5945 72.2783 42.7602 72.5415 42.9971 72.7302C43.2341 72.9188 43.5283 73.0217 43.8316 73.0218H57.8106ZM34.3809 61.5489L34.9572 58.8447C46.5239 60.7346 57.9979 53.8399 61.9445 43.1866C67.1971 29.7473 59.1451 14.2652 45.2322 10.6507L45.8103 7.94649C59.9052 11.6446 68.7743 25.8128 65.7126 40.1712C63.0275 54.1652 48.4169 64.1127 34.3809 61.5489Z" fill="white"/>
</svg>
