<svg width="144" height="36" viewBox="0 0 144 36" fill="none" xmlns="http://www.w3.org/2000/svg">
<path d="M68.8507 18.9359H64.6446L62.3856 15.954H51.7307L49.4713 18.9517L45.2656 18.9359L54.1288 7.17423C54.8459 6.24241 55.8037 5.46094 57.07 5.46094C58.3127 5.46094 59.297 6.24616 59.9898 7.17799L68.8507 18.9359ZM60.1262 12.9563L57.0663 8.87355L53.9896 12.9563H60.1262Z" fill="white"/>
<path d="M88.1665 18.9366H77.1203C74.8474 18.9366 73 17.0901 73 14.8168V5.96094H76.3662V15.9547H88.1665V18.9366Z" fill="white"/>
<path d="M143.98 10.9583C143.98 13.2312 141.984 14.9551 139.711 14.9551H128.814V18.9523H125.445V5.96094H139.818C142.092 5.96094 143.98 7.71364 143.98 9.98705V10.9583ZM140.612 8.95962H128.814V11.9574H140.612V8.95962Z" fill="white"/>
<path d="M75.6809 24.7648C76.0368 24.9305 76.3273 25.1662 76.5523 25.4706C76.777 25.776 76.9079 26.132 76.9454 26.5389H75.7412C75.666 26.2233 75.5227 25.983 75.3115 25.8201C75.1004 25.6572 74.8391 25.576 74.5286 25.576C74.1917 25.576 73.9069 25.6599 73.6738 25.8284C73.4409 25.9968 73.266 26.2299 73.1481 26.5264C73.0302 26.8238 72.9713 27.1616 72.9713 27.5417C72.9713 27.8948 73.0266 28.2168 73.136 28.5055C73.246 28.7946 73.4168 29.0252 73.6498 29.1992C73.8827 29.3733 74.1755 29.4605 74.5286 29.4605C74.9357 29.4605 75.2553 29.357 75.4883 29.1515C75.7208 28.9455 75.8563 28.6359 75.8939 28.2248H74.6252V27.285H77.0336V30.3835H76.2308L76.1022 29.7334C75.899 29.996 75.6632 30.1928 75.3955 30.3236C75.1282 30.4541 74.8391 30.5204 74.5286 30.5204C73.9616 30.5204 73.4636 30.389 73.0353 30.1264C72.607 29.8642 72.2794 29.5073 72.052 29.0553C71.8247 28.6025 71.7109 28.0985 71.7109 27.5417C71.7109 26.969 71.8232 26.4544 72.0478 25.9968C72.2729 25.5398 72.5982 25.1778 73.0237 24.9133C73.4488 24.6478 73.9509 24.5156 74.5286 24.5156C74.9412 24.5156 75.325 24.5991 75.6809 24.7648Z" fill="white"/>
<path d="M86.2829 24.8568C86.5372 24.9965 86.7335 25.1853 86.8722 25.4262C87.012 25.6675 87.0815 25.9348 87.0815 26.229C87.0815 26.9469 86.7789 27.4252 86.1743 27.6661V27.6824C86.4208 27.752 86.6036 27.8782 86.7242 28.0592C86.8448 28.2415 86.9219 28.4299 86.9572 28.6253C86.9915 28.8212 87.0147 29.0546 87.0249 29.3279C87.0356 29.6059 87.0584 29.8267 87.0936 29.9901C87.1284 30.1539 87.1803 30.2834 87.2504 30.3794H85.9896C85.9465 30.2726 85.9149 30.1427 85.8931 29.9901C85.8722 29.8374 85.8504 29.6356 85.8291 29.3836C85.8073 29.0847 85.7687 28.8476 85.713 28.6736C85.6564 28.4996 85.5613 28.3673 85.4276 28.2764C85.2936 28.1854 85.0982 28.1399 84.8416 28.1399H83.5734V30.3794H82.3125V24.6484H85.4036C85.7353 24.6484 86.0281 24.7181 86.2829 24.8568ZM85.6003 27.048C85.7474 26.9194 85.8217 26.7111 85.8217 26.422C85.8217 26.1445 85.7474 25.9422 85.6003 25.816C85.4532 25.6903 85.2375 25.6276 84.9539 25.6276H83.5734V27.2411H84.9622C85.2402 27.2411 85.4532 27.1766 85.6003 27.048Z" fill="white"/>
<path d="M96.4245 24.9087C96.85 25.1714 97.1781 25.5314 97.4083 25.9885C97.6385 26.4461 97.7531 26.9644 97.7531 27.5417C97.7531 28.099 97.6398 28.6035 97.4124 29.0549C97.1846 29.5079 96.8566 29.8642 96.4287 30.1273C96.0004 30.389 95.5025 30.5204 94.9354 30.5204C94.3683 30.5204 93.8704 30.389 93.4421 30.1273C93.0143 29.8642 92.6862 29.5079 92.4588 29.0549C92.2309 28.6035 92.1172 28.099 92.1172 27.5417C92.1172 26.969 92.2309 26.4544 92.4588 25.9968C92.6862 25.5398 93.0124 25.1778 93.4379 24.9133C93.8639 24.6478 94.3632 24.5156 94.9354 24.5156C95.5025 24.5156 95.9994 24.6474 96.4245 24.9087ZM93.5506 28.5208C93.6653 28.8099 93.8407 29.0392 94.0764 29.2076C94.3122 29.3761 94.598 29.4605 94.9354 29.4605C95.2783 29.4605 95.566 29.3751 95.7985 29.2039C96.0314 29.0326 96.2054 28.8025 96.3206 28.5134C96.4351 28.2248 96.4932 27.9004 96.4932 27.5417C96.4932 27.1616 96.4351 26.8247 96.3206 26.53C96.2054 26.2363 96.0314 26.0034 95.7985 25.8321C95.566 25.6605 95.2751 25.5755 94.9275 25.5755C94.5906 25.5755 94.3052 25.6605 94.0727 25.8321C93.8398 26.0034 93.6653 26.2363 93.5506 26.53C93.4356 26.8247 93.3781 27.1616 93.3781 27.5417C93.3781 27.9059 93.4356 28.2326 93.5506 28.5208Z" fill="white"/>
<path d="M104.112 28.1656C104.112 28.588 104.207 28.898 104.397 29.0928C104.587 29.2881 104.885 29.3861 105.292 29.3861C105.587 29.3861 105.82 29.3434 105.991 29.2576C106.162 29.1722 106.286 29.0413 106.364 28.8645C106.442 28.6877 106.48 28.4547 106.48 28.1656V24.5781H107.741V28.1656C107.741 28.6422 107.649 29.0515 107.464 29.3939C107.28 29.7365 107.005 29.9976 106.641 30.1768C106.277 30.3555 105.828 30.4455 105.292 30.4455C104.479 30.4455 103.869 30.2478 103.462 29.8516C103.055 29.4557 102.852 28.8933 102.852 28.1656V24.5781H104.112V28.1656Z" fill="white"/>
<path d="M116.771 24.8893C117.065 25.0499 117.286 25.2688 117.433 25.5468C117.58 25.8253 117.654 26.1389 117.654 26.4865C117.654 26.8397 117.58 27.1538 117.433 27.4299C117.286 27.7051 117.065 27.9232 116.771 28.0838C116.476 28.2438 116.115 28.3246 115.687 28.3246H114.346V30.3794H113.086V24.6484H115.679C116.113 24.6484 116.476 24.7283 116.771 24.8893ZM116.169 27.1408C116.345 27.0039 116.434 26.7863 116.434 26.4865C116.434 26.1923 116.347 25.9756 116.173 25.8359C115.999 25.6971 115.727 25.6276 115.358 25.6276H114.346V27.3455H115.35C115.719 27.3455 115.992 27.2763 116.169 27.1408Z" fill="white"/>
<path d="M143.998 27.5578H122.249V27.2891H143.998V27.5578ZM67.1084 27.5578H45.3594V27.2891H67.1084V27.5578Z" fill="white"/>
<path d="M106.972 18.9366H95.9255C93.6521 18.9366 91.8047 17.0901 91.8047 14.8168V5.96094H95.1709V15.9547H106.972V18.9366Z" fill="white"/>
<path d="M121.37 13.9448H110.328V10.9531H121.37V13.9448Z" fill="#4CAD3B"/>
<path d="M0 0V35.976H11.9923V11.9919H22.9846V0H0Z" fill="white"/>
<path d="M23.9849 0V23.9837H12.9922V35.976H35.9768V0H23.9849Z" fill="white"/>
<path d="M22.9854 12.9922H12.9922V22.9854H22.9854V12.9922Z" fill="#4CAD3B"/>
</svg>
