<svg width="28" height="28" viewBox="0 0 28 28" fill="none" xmlns="http://www.w3.org/2000/svg">
<mask id="mask0_2605_7503" style="mask-type:luminance" maskUnits="userSpaceOnUse" x="0" y="0" width="28" height="28">
<path d="M28 0H0V28H28V0Z" fill="white"/>
</mask>
<g mask="url(#mask0_2605_7503)">
<path d="M13.9999 27.9998C21.7318 27.9998 27.9998 21.7318 27.9998 13.9999C27.9998 6.26796 21.7318 0 13.9999 0C6.26796 0 0 6.26796 0 13.9999C0 21.7318 6.26796 27.9998 13.9999 27.9998Z" fill="white"/>
<path fill-rule="evenodd" clip-rule="evenodd" d="M18.6493 10.5058C18.763 10.2785 18.9903 10.2785 18.9903 9.9375C18.5356 9.9375 18.1946 10.2785 17.9673 10.3922L10.3516 15.1663L11.8292 19.8267C12.0565 19.5993 12.0565 19.372 12.0565 18.9173C12.0565 18.69 12.1702 18.2353 12.1702 18.008V17.2123C12.2839 17.0986 12.2839 16.9849 12.2839 16.7576C12.2839 16.6439 12.2839 16.5303 12.2839 16.4166C12.3976 16.1893 12.5112 16.303 12.6249 16.0756C14.3299 14.2569 16.717 12.2109 18.6493 10.5058Z" fill="#91E083"/>
<path fill-rule="evenodd" clip-rule="evenodd" d="M6.60117 13.7994L10.3523 15.1634L18.309 10.162C18.5364 10.0483 18.7637 9.93467 18.9911 9.93467C18.9911 10.2757 18.5364 10.6167 18.309 10.844C16.604 12.3217 13.7623 14.4814 12.2846 16.1864L13.6486 17.2094C13.8759 17.2094 14.4443 17.7778 14.558 17.8915C14.7853 18.0051 15.6947 18.6871 15.8083 18.9145C16.0357 18.9145 16.0357 19.0282 16.1493 19.1418L17.286 19.9375C17.7407 20.2785 18.1954 20.8468 18.9911 20.2785L21.4917 8.91165C21.8327 6.97927 20.9234 7.32028 19.673 7.77496L6.94217 12.89C6.4875 13.1174 6.03282 13.6857 6.60117 13.7994Z" fill="#4CAD3B"/>
<path fill-rule="evenodd" clip-rule="evenodd" d="M11.8281 19.8249L11.9418 19.9385C12.1691 19.9385 12.3964 19.8249 12.6238 19.5975L14.5561 17.8925C14.4425 17.7789 13.8741 17.2105 13.6468 17.2105L12.2827 16.1875L11.8281 19.8249Z" fill="#337F26"/>
</g>
</svg>
