<svg width="28" height="28" viewBox="0 0 28 28" fill="none" xmlns="http://www.w3.org/2000/svg">
<mask id="mask0_2605_7496" style="mask-type:luminance" maskUnits="userSpaceOnUse" x="0" y="0" width="28" height="28">
<path d="M28 0H0V28H28V0Z" fill="white"/>
</mask>
<g mask="url(#mask0_2605_7496)">
<path d="M14 28C21.732 28 28 21.732 28 14C28 6.26802 21.732 0 14 0C6.26801 0 0 6.26802 0 14C0 21.732 6.26801 28 14 28Z" fill="white"/>
<path d="M20.4227 7.7173C18.8529 6.14699 16.7662 5.28196 14.5437 5.28125C9.96366 5.28125 6.23605 9.00746 6.23374 13.5876C6.23374 15.0525 6.61648 16.4804 7.34238 17.7396L6.16406 22.0448L10.5688 20.8889C11.7831 21.5515 13.1491 21.9007 14.5411 21.9007H14.5437C19.1226 21.9007 22.8513 18.1746 22.8536 13.5939C22.8537 11.3738 21.9912 9.28703 20.4227 7.7173ZM14.5437 20.4985H14.5411C13.3019 20.4973 12.0864 20.1643 11.0262 19.5354L10.7726 19.3849L8.16003 20.0711L8.85729 17.5231L8.69203 17.2621C8.00097 16.1633 7.63552 14.8918 7.63681 13.5875C7.63805 9.78058 10.7366 6.68308 14.546 6.68308C16.3904 6.68432 18.1256 7.40327 19.4294 8.7084C20.7331 10.0135 21.4516 11.7479 21.4503 13.5929C21.4493 17.4014 18.3507 20.4985 14.5437 20.4985ZM18.3322 15.3269C18.1245 15.2238 17.104 14.7217 16.914 14.6521C16.7239 14.5825 16.5845 14.5476 16.4466 14.7552C16.3088 14.9627 15.9109 15.4301 15.7893 15.5693C15.6673 15.7084 15.5469 15.7258 15.3394 15.6215C15.1317 15.517 14.4619 15.2984 13.6688 14.5912C13.0524 14.0405 12.6348 13.3607 12.5154 13.153C12.3936 12.9448 12.5018 12.833 12.6049 12.7292C12.6994 12.6366 12.8136 12.4868 12.9169 12.3657C13.02 12.2444 13.0548 12.158 13.1245 12.0195C13.1942 11.8809 13.1593 11.7598 13.1071 11.6559C13.0549 11.5516 12.6398 10.5299 12.467 10.1147C12.2992 9.7095 12.1277 9.76416 11.9997 9.75797C11.8791 9.75242 11.74 9.75118 11.602 9.75118C11.4641 9.75118 11.2379 9.80282 11.049 10.0108C10.8575 10.2185 10.3218 10.7206 10.3218 11.7421C10.3218 12.7637 11.0663 13.7506 11.1695 13.8893C11.2727 14.0279 12.6337 16.1234 14.7155 17.0233C15.2115 17.237 15.598 17.3651 15.9 17.4607C16.3971 17.6187 16.8507 17.5962 17.2089 17.5428C17.6064 17.4832 18.4369 17.0408 18.6095 16.556C18.7824 16.0712 18.7824 15.6561 18.73 15.5692C18.6775 15.4822 18.5409 15.4301 18.3322 15.3269Z" fill="#4CAD3B"/>
</g>
</svg>
